<svg xmlns="http://www.w3.org/2000/svg" height="24" width="24"><rect id="backgroundrect" width="100%" height="100%" x="0" y="0" fill="none" stroke="none"/><g class="currentLayer" style=""><title>Layer 1</title><path d="M0 0h24v24H0V0z" fill="none" id="svg_1"/><path d="M18 20H4V6h9V4H4c-1.1 0-2 .9-2 2v14c0 1.1.9 2 2 2h14c1.1 0 2-.9 2-2v-9h-2v9zm-7.79-3.17l-1.96-2.36L5.5 18h11l-3.54-4.71zM20 4V1h-2v3h-3c.01.01 0 2 0 2h3v2.99c.01.01 2 0 2 0V6h3V4h-3z" id="svg_2" class="" stroke-opacity="1" stroke="#5e5e5e" fill-opacity="1" fill="#5e5e5e"/></g></svg>