<svg xmlns="http://www.w3.org/2000/svg" xmlns:xlink="http://www.w3.org/1999/xlink" width="121.118" height="28.035" viewBox="0 0 121.118 28.035"><defs><style>.a{fill:#f6c344;}.b{fill:#2d3436;}.c{fill:url(#a);}.d{fill:url(#b);}.e{fill:url(#c);}</style><linearGradient id="a" x1="-0.216" y1="0.014" x2="0.883" y2="0.91" gradientUnits="objectBoundingBox"><stop offset="0.08" stop-color="#fdcb6e"/><stop offset="0.179" stop-color="#fac861"/><stop offset="0.363" stop-color="#f8c550"/><stop offset="0.567" stop-color="#f6c347"/><stop offset="0.826" stop-color="#f6c344"/></linearGradient><linearGradient id="b" x1="-0.131" y1="-0.231" x2="0.882" y2="1.414" gradientUnits="objectBoundingBox"><stop offset="0.141" stop-color="#fdcb6e"/><stop offset="0.232" stop-color="#fac861"/><stop offset="0.401" stop-color="#f8c550"/><stop offset="0.588" stop-color="#f6c347"/><stop offset="0.826" stop-color="#f6c344"/></linearGradient><linearGradient id="c" x1="0.124" y1="0.711" x2="1.132" y2="-0.235" gradientUnits="objectBoundingBox"><stop offset="0" stop-color="#f6c344"/><stop offset="0.193" stop-color="#eeb63c"/><stop offset="0.547" stop-color="#da9528"/><stop offset="1" stop-color="#bc6309"/></linearGradient></defs><g transform="translate(-195.954 -352.556)"><rect class="a" width="5.446" height="5.446" transform="translate(291.726 352.714)"/><path class="b" d="M275.673,360.252v.355H279.3v4.736h-3.67v15.233h-4.7V365.343h-3.473s3.473-2.573,3.473-4.736v-.355a7.677,7.677,0,0,1,10.537-7.143l-1.618,4.46a2.645,2.645,0,0,0-1.224-.276,2.964,2.964,0,0,0-2.96,2.96Zm24.833,10.261a10.064,10.064,0,0,1-20.127,0,10.065,10.065,0,0,1,20.127,0Zm-4.736,0a5.328,5.328,0,1,0-10.656,0,5.328,5.328,0,0,0,10.656,0Zm20.965-9.077a7.307,7.307,0,0,0-3.473-.868,8.011,8.011,0,0,0-5.367,2.21v-2.21h-4.736v20.024h4.736V369.447a4.109,4.109,0,0,1,4.1-4.065,4.34,4.34,0,0,1,2.408.75Zm30.819,19.156V360.607h-5.446v19.984Zm19.19-.039v-4.988h-8.17l8.88-14.918H350.918v4.736h8.209l-8.88,15.17Zm-27.953-10.039a9.941,9.941,0,0,1-19.882,0v-17.8h5.863v8.733a9.941,9.941,0,0,1,14.019,9.065Zm-4.741,0a5.2,5.2,0,1,0-5.2,5.2A5.2,5.2,0,0,0,334.051,370.513Z" transform="translate(-50.382 0)"/><g transform="translate(195.954 352.556)"><path class="c" d="M223.163,385.677c0,1.131,1.416,1.979,3.128,2.4,3.9.964,5.654,2.513,5.654,6.453,0,3.738-3.673,7.958-7.2,7.958,6.492,0,9.721-4.456,9.721-9.455a8.355,8.355,0,0,0-3.62-7.446C228.278,383.77,223.163,382.97,223.163,385.677Z" transform="translate(-215.124 -374.657)"/><g transform="translate(0 0)"><path class="d" d="M205.675,375.727h0a5.046,5.046,0,0,1-4.8-5.1v-13.46a4.533,4.533,0,0,0-1.967-3.405l-1.33-1a1.017,1.017,0,0,0-1.627.813v10.941C196.3,373.647,200.855,375.727,205.675,375.727Z" transform="translate(-195.954 -352.556)"/></g><g transform="translate(0 11.96)"><path class="e" d="M212.775,400.951c0-3.94-1.749-5.488-5.654-6.453-.1-.024-.19-.049-.284-.075a5.237,5.237,0,0,1,3.634,5.031,4.644,4.644,0,0,1-4.8,4.793c-4.82,0-9.375-2.08-9.721-11.211V399c0,6.393,4.235,9.881,9.653,9.91C209.127,408.88,212.775,404.677,212.775,400.951Z" transform="translate(-195.954 -393.037)"/></g></g></g></svg>