<svg xmlns="http://www.w3.org/2000/svg" enable-background="new 0 0 24 24" height="24" width="24"><rect id="backgroundrect" width="100%" height="100%" x="0" y="0" fill="none" stroke="none"/><g class="currentLayer" style=""><title>Layer 1</title><g id="svg_1" class=""><rect fill="none" height="24" width="24" id="svg_2" y="-0.5291005373001099" x="0.5291005373001099"/></g><g id="svg_3" class="" fill-opacity="1" fill="#5e5e5e"><g id="svg_4" fill="#5e5e5e"><path d="M3,5v14c0,1.1,0.89,2,2,2h6V3H5C3.89,3,3,3.9,3,5z M9,19H5V5h4V19z" id="svg_5" fill="#5e5e5e"/><path d="M19,3h-6v8h8V5C21,3.9,20.1,3,19,3z M19,9h-4V5h4V9z" id="svg_6" fill="#5e5e5e"/><path d="M13,21h6c1.1,0,2-0.9,2-2v-6h-8V21z M15,15h4v4h-4V15z" id="svg_7" fill="#5e5e5e"/></g></g></g></svg>