<svg xmlns="http://www.w3.org/2000/svg" width="21.772" height="17.307" viewBox="0 0 21.772 17.307">
  <g id="Groupe_5897" data-name="Groupe 5897" transform="translate(0 -52.499)">
    <g id="Groupe_5896" data-name="Groupe 5896" transform="translate(0 52.499)">
      <g id="Groupe_5895" data-name="Groupe 5895">
        <path id="Tracé_3054" data-name="Tracé 3054" d="M206.2,123.747a.851.851,0,0,0-1.08-.1c-1.273.867-7.656,5.229-8.342,5.915a2.551,2.551,0,0,0,3.608,3.608c.686-.686,5.048-7.069,5.915-8.342A.851.851,0,0,0,206.2,123.747Zm-7.017,8.219a.85.85,0,0,1-1.2-1.2c.267-.263,2.079-1.556,4.309-3.106C200.736,129.888,199.443,131.7,199.18,131.967Z" transform="translate(-187.693 -120.479)" fill="#fff"/>
        <path id="Tracé_3055" data-name="Tracé 3055" d="M3.922,67.341l-1.05.512A9.142,9.142,0,0,1,2.3,60.124l1.2.577a.85.85,0,1,0,.736-1.534L3.05,58.6a9.2,9.2,0,0,1,6.986-4.359v1.279a.85.85,0,1,0,1.7,0v-1.28a9.08,9.08,0,0,1,2.924.77.85.85,0,1,0,.7-1.55A10.877,10.877,0,0,0,1.844,69.429a.85.85,0,0,0,1.08.292l1.743-.85a.851.851,0,1,0-.746-1.529Z" transform="translate(0 -52.499)" fill="#fff"/>
        <path id="Tracé_3056" data-name="Tracé 3056" d="M394.223,191.995a.85.85,0,1,0-1.55.7,9.156,9.156,0,0,1-.366,8.249l-1.1-.522a.85.85,0,1,0-.731,1.536l1.786.85a.85.85,0,0,0,1.073-.3,10.86,10.86,0,0,0,.885-10.518Z" transform="translate(-373.41 -185.583)" fill="#fff"/>
      </g>
    </g>
  </g>
</svg>
