<svg xmlns="http://www.w3.org/2000/svg" width="21.671" height="22.24" viewBox="0 0 21.671 22.24">
  <g id="Groupe_6" data-name="Groupe 6" transform="translate(-17.222 -15.05)">
    <path id="Tracé_4" data-name="Tracé 4" d="M34.313,27.549a.471.471,0,0,0-.471.471v8.065a.262.262,0,0,1-.262.262H18.426a.262.262,0,0,1-.262-.262V20.706h3.282a1.433,1.433,0,0,0,1.432-1.432V15.993h10.7a.262.262,0,0,1,.262.262v1.624a.471.471,0,0,0,.943,0V16.254a1.206,1.206,0,0,0-1.2-1.2H22.218l-5,4.773V36.085a1.206,1.206,0,0,0,1.2,1.2H33.579a1.206,1.206,0,0,0,1.2-1.2V28.021A.471.471,0,0,0,34.313,27.549ZM21.447,19.763h-2.8l3.286-3.14v2.651A.489.489,0,0,1,21.447,19.763Z" transform="translate(0 0)" fill="#cbcbcb"/>
    <path id="Tracé_5" data-name="Tracé 5" d="M61.669,42.988a1.313,1.313,0,0,0-.387-.934l-1.02-1.021a1.353,1.353,0,0,0-1.868,0l-1.28,1.28h0L53.2,46.223a.465.465,0,0,0-.349-.162H43.9a.471.471,0,1,0,0,.943h8.524l-3.38,3.38-.011,0H43.9a.471.471,0,1,0,0,.943h4.278a12.3,12.3,0,0,0-.757,1.964c-.235.733-.37,1.216-.438,1.545H43.9a.471.471,0,1,0,0,.943h3.509a.46.46,0,0,0,.21-.055,10.114,10.114,0,0,0,2.638-1.161.459.459,0,0,0,.207-.118v0c.45-.262.763-.463.772-.472l8.8-8.8h0l1.247-1.247A1.313,1.313,0,0,0,61.669,42.988ZM48.452,53.167l.872.835c-.451.226-.94.457-1.318.62C48.117,54.211,48.283,53.671,48.452,53.167Zm2.121.132a2.653,2.653,0,0,1-.372.24L48.8,52.2a2.508,2.508,0,0,1,.213-.45l8.44-8.44,1.574,1.537ZM60.615,43.256l-.921.921L58.12,42.64l.939-.94a.38.38,0,0,1,.535,0l1.02,1.021A.379.379,0,0,1,60.615,43.256Z" transform="translate(-22.776 -22.257)" fill="#cbcbcb"/>
  </g>
</svg>
