<svg xmlns="http://www.w3.org/2000/svg" width="24.229" height="24.224" viewBox="0 0 24.229 24.224">
  <g id="Groupe_2569" data-name="Groupe 2569" transform="translate(-52.954 -53)">
    <path id="Tracé_2930" data-name="Tracé 2930" d="M94.1,271.071a.635.635,0,0,0-.634.634v8.361a.95.95,0,0,1-.949.949H84.441V275.02a.634.634,0,0,0-1.269,0v5.995H80.434v-6.44a.95.95,0,0,1,.949-.949h4.848a.95.95,0,0,1,.949.949v5.1a.634.634,0,0,0,1.269,0v-5.1a2.22,2.22,0,0,0-2.218-2.218H81.382a2.22,2.22,0,0,0-2.218,2.218v6.44H75.1a.95.95,0,0,1-.949-.949v-8.361a.634.634,0,1,0-1.269,0v8.361a2.22,2.22,0,0,0,2.217,2.218H92.513a2.22,2.22,0,0,0,2.218-2.218v-8.361A.635.635,0,0,0,94.1,271.071Z" transform="translate(-18.739 -205.06)" fill="#cbcbcb"/>
    <path id="Tracé_2931" data-name="Tracé 2931" d="M76.545,61.391a.635.635,0,0,0-.634.634,2.235,2.235,0,1,1-4.47,0,.634.634,0,0,0-1.269,0,2.235,2.235,0,1,1-4.47,0,.634.634,0,0,0-1.269,0,2.235,2.235,0,1,1-4.47-.02.634.634,0,1,0-1.269,0,2.235,2.235,0,1,1-4.47.019V59.7l2.355-5.434H73.556l2.023,4.668H56.163a.634.634,0,1,0,0,1.269c5.268,0,9.214,0,12.1,0l4.187,0c2.246,0,3.226,0,3.744-.014.547-.011.65-.021.753-.132a.632.632,0,0,0,.231-.406v0c.027-.126,0-.209-.136-.539s-.419-.979-.977-2.265c-.362-.832-.857-1.971-1.506-3.469A.634.634,0,0,0,73.972,53H56.163a.634.634,0,0,0-.582.382l-2.572,5.937,0,.008c-.051.11-.051.11-.05,1.3,0,.348,0,.8,0,1.4a3.5,3.5,0,0,0,6.372,2.008,3.507,3.507,0,0,0,5.74,0,3.507,3.507,0,0,0,5.739,0,3.5,3.5,0,0,0,6.373-2.01A.635.635,0,0,0,76.545,61.391Z" transform="translate(0)" fill="#cbcbcb"/>
  </g>
</svg>
