<svg xmlns="http://www.w3.org/2000/svg" width="27.797" height="24.363" viewBox="0 0 27.797 24.363">
  <g id="gallery" transform="translate(0 -26.576)">
    <g id="Groupe_6458" data-name="Groupe 6458" transform="translate(0 26.576)">
      <g id="Groupe_6457" data-name="Groupe 6457">
        <path id="Tracé_5367" data-name="Tracé 5367" d="M176.824,159.668a2.835,2.835,0,1,0,2.835,2.835A2.835,2.835,0,0,0,176.824,159.668Zm0,4.321a1.485,1.485,0,0,1,0-2.97h0a1.485,1.485,0,0,1,0,2.97Z" transform="translate(-162.748 -151.069)" fill="#fff"/>
        <path id="Tracé_5368" data-name="Tracé 5368" d="M25.385,28.694,6.954,26.6a2.531,2.531,0,0,0-1.992.574,2.565,2.565,0,0,0-.979,1.755L3.646,31.7H2.6A2.713,2.713,0,0,0,0,34.5V48.305a2.565,2.565,0,0,0,2.5,2.632H21.131a2.771,2.771,0,0,0,2.835-2.633v-.54a3.375,3.375,0,0,0,1.283-.54,2.8,2.8,0,0,0,.979-1.823l1.553-13.7A2.734,2.734,0,0,0,25.385,28.694ZM22.617,48.305a1.421,1.421,0,0,1-1.485,1.283H2.6a1.215,1.215,0,0,1-1.25-1.179q0-.052,0-.1v-2.5l5.232-3.848a1.62,1.62,0,0,1,2.093.1l3.679,3.24a3.173,3.173,0,0,0,1.992.743,3.072,3.072,0,0,0,1.62-.439l6.65-3.848v6.548Zm0-8.135-7.359,4.287a1.722,1.722,0,0,1-1.992-.169L9.553,41.014a3,3,0,0,0-3.747-.135L1.351,44.12V34.5A1.363,1.363,0,0,1,2.6,33.048H21.131A1.553,1.553,0,0,1,22.617,34.5V40.17Zm3.816-8.655v.013l-1.586,13.7a1.148,1.148,0,0,1-.439.911c-.135.135-.439.2-.439.27V34.5a2.9,2.9,0,0,0-2.835-2.8H5l.3-2.633a1.553,1.553,0,0,1,.506-.878,1.553,1.553,0,0,1,1.013-.27l18.4,2.127A1.35,1.35,0,0,1,26.432,31.516Z" transform="translate(0 -26.576)" fill="#fff"/>
      </g>
    </g>
  </g>
</svg>
