<svg id="Groupe_5893" data-name="Groupe 5893" xmlns="http://www.w3.org/2000/svg" width="21.695" height="21.695" viewBox="0 0 21.695 21.695">
  <path id="Tracé_3036" data-name="Tracé 3036" d="M19.365,3.39h-.636V1.907a1.907,1.907,0,1,0-3.814,0v.521A1.489,1.489,0,0,1,13.84,3.853l-.619.177v0a.636.636,0,0,0-.636-.636H10.043a.636.636,0,0,0-.636.636V6.865h-7.5A1.909,1.909,0,0,0,0,8.771V21.06a.636.636,0,0,0,.988.529L3.37,20h12.1a1.909,1.909,0,0,0,1.907-1.907V11.441h1.992A2.333,2.333,0,0,0,21.7,9.11V5.72A2.333,2.333,0,0,0,19.365,3.39ZM10.678,4.661h1.271V10.17H10.678ZM16.1,18.094a.636.636,0,0,1-.636.636H3.178a.635.635,0,0,0-.353.107L1.271,19.872V8.771a.636.636,0,0,1,.636-.636h7.5v2.67a.636.636,0,0,0,.636.636h2.542a.635.635,0,0,0,.631-.563,3.58,3.58,0,0,0,1.924.563H16.1ZM20.424,9.11a1.061,1.061,0,0,1-1.059,1.059H15.141a2.313,2.313,0,0,1-1.92-1.027V5.352l.968-.277a2.766,2.766,0,0,0,2-2.648V1.907a.636.636,0,1,1,1.271,0V4.025a.636.636,0,0,0,.636.636h1.271A1.061,1.061,0,0,1,20.424,5.72Z" transform="translate(0 0)" fill="#cbcbcb"/>
  <path id="Tracé_3037" data-name="Tracé 3037" d="M60.586,253.172h3.906a.586.586,0,0,0,0-1.172H60.586a.586.586,0,0,0,0,1.172Z" transform="translate(-57.656 -241.27)" fill="#cbcbcb"/>
  <path id="Tracé_3038" data-name="Tracé 3038" d="M70.742,312H60.586a.586.586,0,0,0,0,1.172H70.742a.586.586,0,0,0,0-1.172Z" transform="translate(-57.656 -298.715)" fill="#cbcbcb"/>
  <path id="Tracé_3039" data-name="Tracé 3039" d="M70.742,372H60.586a.586.586,0,0,0,0,1.172H70.742a.586.586,0,0,0,0-1.172Z" transform="translate(-57.656 -356.16)" fill="#cbcbcb"/>
</svg>
