<?xml version="1.0" encoding="utf-8"?>
<!-- Generator: Adobe Illustrator 25.1.0, SVG Export Plug-In . SVG Version: 6.00 Build 0)  -->
<svg version="1.1" id="Calque_1" xmlns="http://www.w3.org/2000/svg" xmlns:xlink="http://www.w3.org/1999/xlink" x="0px" y="0px"
	 viewBox="0 0 24.2 24.2" style="enable-background:new 0 0 24.2 24.2;" xml:space="preserve">
<style type="text/css">
	.st0{fill:#FFFFFF;}
</style>
<g id="Groupe_2569" transform="translate(-52.954 -53)">
	<path id="Tracé_2930" class="st0" d="M75.4,66c-0.3,0-0.6,0.3-0.6,0.6V75c0,0.5-0.4,0.9-0.9,0.9h-8.1v-6c0-0.4-0.3-0.6-0.6-0.6
		s-0.6,0.3-0.6,0.6v6h-2.7v-6.4c0-0.5,0.4-0.9,0.9-0.9h4.8c0.5,0,0.9,0.4,0.9,0.9v5.1c0,0.4,0.3,0.6,0.6,0.6s0.6-0.3,0.6-0.6v-5.1
		c0-1.2-1-2.2-2.2-2.2h-4.8c-1.2,0-2.2,1-2.2,2.2V76h-4.1c-0.5,0-0.9-0.4-0.9-0.9v-8.4c0-0.4-0.3-0.6-0.6-0.6s-0.6,0.3-0.6,0.6V75
		c0,1.2,1,2.2,2.2,2.2h17.4c1.2,0,2.2-1,2.2-2.2v-8.4C76,66.3,75.7,66,75.4,66z"/>
	<path id="Tracé_2931" class="st0" d="M76.5,61.4c-0.3,0-0.6,0.3-0.6,0.6c0,1.2-1,2.2-2.2,2.2s-2.2-1-2.2-2.2l0,0
		c0-0.4-0.3-0.6-0.6-0.6s-0.6,0.3-0.6,0.6c0,1.2-1,2.2-2.2,2.2s-2.2-1-2.2-2.2l0,0c0-0.4-0.3-0.6-0.6-0.6s-0.6,0.3-0.6,0.6
		c0,1.2-1,2.2-2.2,2.2c-1.2,0-2.2-1-2.2-2.2c0-0.4-0.3-0.6-0.6-0.6c-0.4,0-0.6,0.3-0.6,0.6c0,1.2-1,2.2-2.2,2.2
		c-1.2,0-2.2-1-2.2-2.2l0,0v-2.3l2.4-5.4h17l2,4.7H56.2c-0.4,0-0.6,0.3-0.6,0.6c0,0.4,0.3,0.6,0.6,0.6c5.3,0,9.2,0,12.1,0h4.2
		c2.2,0,3.2,0,3.7,0c0.5,0,0.7,0,0.8-0.1c0.1-0.1,0.2-0.2,0.2-0.4l0,0c0-0.1,0-0.2-0.1-0.5s-0.4-1-1-2.3c-0.4-0.8-0.9-2-1.5-3.5
		C74.5,53.1,74.2,53,74,53H56.2c-0.3,0-0.5,0.2-0.6,0.4L53,59.3v0c-0.1,0.1-0.1,0.1,0,1.3c0,0.3,0,0.8,0,1.4c0,1.9,1.6,3.5,3.5,3.5
		c1.1,0,2.2-0.6,2.9-1.5c1.1,1.6,3.3,2,4.9,0.9c0.3-0.2,0.6-0.5,0.9-0.9c1.1,1.6,3.3,2,4.9,0.9c0.3-0.2,0.6-0.5,0.9-0.9
		c1.1,1.6,3.3,2,4.9,0.9c0.9-0.7,1.5-1.7,1.5-2.9C77.2,61.7,76.9,61.4,76.5,61.4C76.5,61.4,76.5,61.4,76.5,61.4z"/>
</g>
</svg>
