<?xml version="1.0" encoding="utf-8"?>
<!-- Generator: Adobe Illustrator 25.2.1, SVG Export Plug-In . SVG Version: 6.00 Build 0)  -->
<svg version="1.1" id="Calque_1" xmlns="http://www.w3.org/2000/svg" xmlns:xlink="http://www.w3.org/1999/xlink" x="0px" y="0px"
	 viewBox="0 0 269.7 387" style="enable-background:new 0 0 269.7 387;" xml:space="preserve">
<style type="text/css">
	.st0{fill:#31A853;}
	.st1{fill:#FBBC08;}
	.st2{fill:#517BBD;}
	.st3{fill:#376BB3;}
	.st4{fill:#E84336;}
</style>
<g>
	<path id="Tracé_5330" class="st0" d="M74.3,287.4c11.2,14.3,21.3,29.3,30.4,45.1c7,13.6,12.6,27.9,16.7,42.6
		c3.4,9.8,6.6,12.7,13.3,12.7c7.4,0,10.8-5.1,13.3-12.7c4.1-14.3,9.5-28.3,16.1-41.6c25.3-47.9,66.8-82,90.2-128.6
		c10.2-21.3,15.4-44.7,15.4-68.3c0.1-21.9-5.1-43.6-15.2-63L74.3,287.8V287.4z"/>
	<path id="Tracé_5331" class="st1" d="M13.2,199.8c17.1,31.4,37.6,60.8,61.2,87.6l100.2-118.9c-9.9,11.7-24.4,18.4-39.7,18.5
		c-28.4,0.2-51.5-22.7-51.7-51c0-0.1,0-0.2,0-0.4c0.2-12.1,4.3-23.8,11.8-33.4c-73.8,11-69.7,28.9-82,97.4L13.2,199.8z"/>
	<path id="Tracé_5332" class="st2" d="M175.8,6.7c34.1,10.7,62.5,34.7,78.8,66.5l-80.1,95.5c7.4-9.6,11.6-21.3,11.8-33.4
		c-0.3-28.3-23.1-51.1-51.4-51.4c-15.3,0.2-29.7,6.8-39.7,18.3C118.3,67.4,145.4,35.3,175.8,6.7L175.8,6.7z"/>
	<path id="Tracé_5333" class="st3" d="M31.4,48.8C56.9,18.2,94.7,0.5,134.5,0.5c13.9,0,27.7,2.1,41,6.2l-80.4,95.5
		C72.3,86.3,51,68.4,31.4,48.6V48.8z"/>
	<path id="Tracé_5334" class="st4" d="M13.1,199.8C4.3,179.7-0.2,158,0,136.1c-0.1-31.8,11.1-62.6,31.5-87l63.7,53.6l-82,97.1
		L13.1,199.8z"/>
</g>
</svg>
