<?xml version="1.0" encoding="utf-8"?>
<!-- Generator: Adobe Illustrator 25.2.1, SVG Export Plug-In . SVG Version: 6.00 Build 0)  -->
<svg version="1.1" id="Calque_1" xmlns="http://www.w3.org/2000/svg" xmlns:xlink="http://www.w3.org/1999/xlink" x="0px" y="0px"
	 viewBox="0 0 309.8 316" style="enable-background:new 0 0 309.8 316;" xml:space="preserve">
<style type="text/css">
	.st0{fill:#517BBD;}
	.st1{fill:#31A853;}
	.st2{fill:#FBBC08;}
	.st3{fill:#E84336;}
</style>
<g id="Google__G__Logo" transform="translate(0.05 0.018)">
	<path id="Tracé_5324" class="st0" d="M309.6,161.6c0-10.8-0.9-21.5-2.7-32.1h-149v60.8h85.3c-3.5,19.6-14.9,37-31.6,48v39.4h50.9
		C294,247.4,311.1,205.2,309.6,161.6L309.6,161.6z"/>
	<path id="Tracé_5325" class="st1" d="M157.9,316c38.5,1.1,75.9-12.6,104.7-38.1l-50.9-39.5c-44.6,28.5-103.8,15.5-132.3-29
		c-4.2-6.6-7.6-13.7-10.1-21.1H16.8v40.7C43.6,282.3,98.2,316,157.9,316z"/>
	<path id="Tracé_5326" class="st2" d="M69.2,188.2c-6.6-19.6-6.6-40.9,0-60.5V87.1H16.8c-22.4,44.6-22.4,97.2,0,141.9L69.2,188.2z"
		/>
	<path id="Tracé_5327" class="st3" d="M157.9,62.5c22.5-0.4,44.3,8.1,60.6,23.7l45.1-45.1C235,14.3,197.2-0.5,157.9,0
		C98.2,0,43.6,33.7,16.8,87.1l52.5,40.7C81.8,89.2,117.4,63,157.9,62.5z"/>
</g>
</svg>
