<?xml version="1.0" encoding="utf-8"?>
<!-- Generator: Adobe Illustrator 25.2.1, SVG Export Plug-In . SVG Version: 6.00 Build 0)  -->
<svg version="1.1" id="Calque_1" xmlns="http://www.w3.org/2000/svg" xmlns:xlink="http://www.w3.org/1999/xlink" x="0px" y="0px"
	 viewBox="0 0 32 26.3" style="enable-background:new 0 0 32 26.3;" xml:space="preserve">
<style type="text/css">
	.st0{fill:#C94040;}
</style>
<path id="Tracé_5" class="st0" d="M18.7,11.1L16,14l-2.7-2.9L11.5,13l2.7,2.9l-2.7,2.9l1.8,1.9l2.7-2.9l2.7,2.9l1.8-1.9l-2.7-2.9
	l2.7-2.9L18.7,11.1z M20.4,2.2l-1.3-1.4h-6.3l-1.3,1.4H7.2V5h17.6V2.2L20.4,2.2z M8.4,22.7c0,1.5,1.1,2.7,2.5,2.7H21
	c1.4-0.1,2.6-1.3,2.5-2.7V6.3H8.4V22.7z M11,9.1H21v13.7H11V9.1z"/>
</svg>
