<?xml version="1.0" encoding="utf-8"?>
<!-- Generator: Adobe Illustrator 25.2.1, SVG Export Plug-In . SVG Version: 6.00 Build 0)  -->
<svg version="1.1" id="Calque_1" xmlns="http://www.w3.org/2000/svg" xmlns:xlink="http://www.w3.org/1999/xlink" x="0px" y="0px"
	 viewBox="0 0 309.8 387" style="enable-background:new 0 0 309.8 387;" xml:space="preserve">
<style type="text/css">
	.st0{fill:#0C81C4;}
	.st1{fill:#FFFFFF;}
</style>
<g>
	<g transform="matrix(1, 0, 0, 1, 0, 0)">
		<path id="Tracé_5363-2" class="st0" d="M154.9,0c85-0.5,154.4,68,154.9,153c0,1.9,0,3.8-0.1,5.7c0,64.2-51.6,140.4-154.8,228.3
			C51.7,299,0.1,222.9,0.1,158.7c-2.6-85,64.1-156,149.1-158.6C151.1,0,153,0,154.9,0z"/>
	</g>
	<g id="Groupe_6445" transform="translate(-28.639 -27.597)">
		<path id="Tracé_2930" class="st1" d="M236,197.8c-1.8,0-3.2,1.5-3.2,3.2v42.7c0,2.7-2.2,4.8-4.8,4.8h-41.2V218
			c0-1.8-1.4-3.2-3.2-3.2c-1.8,0-3.2,1.4-3.2,3.2v30.6h-14v-32.9c0-2.7,2.2-4.8,4.8-4.8h24.8c2.7,0,4.8,2.2,4.8,4.8v26
			c0,1.8,1.4,3.2,3.2,3.2c1.8,0,3.2-1.4,3.2-3.2v-26c0-6.2-5.1-11.3-11.3-11.3h-24.8c-6.2,0-11.3,5.1-11.3,11.3v32.9h-20.8
			c-2.7,0-4.8-2.2-4.8-4.8v-42.6c0-1.8-1.4-3.2-3.2-3.2c-1.8,0-3.2,1.4-3.2,3.2v42.7c0,6.2,5.1,11.3,11.3,11.3h88.9
			c6.2,0,11.3-5.1,11.3-11.3v-42.7C239.3,199.3,237.8,197.8,236,197.8C236,197.8,236,197.8,236,197.8z"/>
		<path id="Tracé_2931" class="st1" d="M242.1,174.3c-1.8,0-3.2,1.4-3.2,3.2c0,6.3-5.1,11.4-11.4,11.4c-6.3,0-11.4-5.1-11.4-11.4
			c0,0,0,0,0,0c0-1.8-1.4-3.2-3.2-3.2c-1.8,0-3.2,1.4-3.2,3.2c0,6.3-5.1,11.4-11.4,11.4c-6.3,0-11.4-5.1-11.4-11.4c0,0,0,0,0,0
			c0-1.8-1.4-3.2-3.2-3.2c-1.8,0-3.2,1.4-3.2,3.2c0,6.3-5.2,11.4-11.5,11.4s-11.4-5.2-11.4-11.5l0,0c0-1.8-1.4-3.2-3.2-3.2
			c-1.8,0-3.2,1.4-3.2,3.2c0,6.3-5.1,11.4-11.4,11.5s-11.4-5.1-11.5-11.4v-11.9l12-27.7h86.7l10.3,23.8h-99c-1.8,0-3.2,1.4-3.2,3.2
			c0,1.8,1.4,3.2,3.2,3.2h61.7h21.4c11.5,0,16.5,0,19.1-0.1s3.3-0.1,3.8-0.7c0.6-0.5,1.1-1.3,1.2-2.1l0,0c0.1-0.6,0-1.1-0.7-2.8
			c-0.7-1.7-2.1-5-5-11.6c-1.8-4.2-4.4-10.1-7.7-17.7c-0.5-1.2-1.7-2-3-2h-90.9c-1.3,0-2.5,0.8-3,2L122,163.7l0,0
			c-0.3,0.6-0.3,0.6-0.2,6.6c0,1.8,0,4.1,0,7.1c0,9.9,8,17.9,17.9,17.9c5.8,0,11.3-2.8,14.7-7.6c5.7,8.1,16.8,10.1,24.9,4.4
			c1.7-1.2,3.2-2.7,4.4-4.4c5.7,8.1,16.8,10,24.9,4.4c1.7-1.2,3.2-2.7,4.4-4.4c5.7,8.1,16.8,10,24.9,4.4c4.8-3.3,7.6-8.8,7.6-14.6
			C245.3,175.6,243.9,174.2,242.1,174.3z"/>
	</g>
</g>
</svg>
