<?xml version="1.0" encoding="utf-8"?>
<!-- Generator: Adobe Illustrator 25.2.1, SVG Export Plug-In . SVG Version: 6.00 Build 0)  -->
<svg version="1.1" id="Calque_1" xmlns="http://www.w3.org/2000/svg" xmlns:xlink="http://www.w3.org/1999/xlink" x="0px" y="0px"
	 viewBox="0 0 301.4 309.9" style="enable-background:new 0 0 301.4 309.9;" xml:space="preserve">
<style type="text/css">
	.st0{fill:#717070;}
</style>
<path id="Tracé_5346" class="st0" d="M265.9,170.1c0.7-5,1-10.1,1-15.2c0-5.1-0.3-10.2-1.1-15.2l32.8-25.5c2.9-2.4,3.7-6.5,1.9-9.8
	l-31-53.6c-1.9-3.3-5.9-4.8-9.5-3.6l-38.6,15.5c-8-6.2-16.8-11.3-26.1-15.2l-5.8-41c-0.6-3.8-3.9-6.6-7.8-6.6h-62
	c-3.8,0-7.1,2.8-7.6,6.6l-5.8,41c-9.3,3.9-18.1,9-26.1,15.2L41.6,47.2c-3.6-1.4-7.7,0.1-9.5,3.6L1.3,104.4c-2,3.3-1.2,7.6,1.9,9.8
	L36,139.8c-1.8,10-1.9,20.3-0.3,30.3L2.9,195.6c-2.9,2.4-3.7,6.5-1.9,9.8l31,53.6c1.9,3.3,5.9,4.8,9.5,3.6L80,247.1
	c8,6.2,16.8,11.3,26.1,15.2l5.8,41c0.6,3.8,3.9,6.6,7.8,6.6h62c3.8,0.1,7.1-2.8,7.6-6.6l5.8-41c9.4-3.8,18.2-8.9,26.1-15.2
	l38.6,15.5c3.6,1.4,7.7-0.1,9.5-3.6l31-53.6c2-3.3,1.2-7.6-1.9-9.8L265.9,170.1z M150.7,213c-32.1,0-58.1-26-58.1-58.1
	s26-58.1,58.1-58.1s58.1,26,58.1,58.1l0,0C208.7,187,182.8,213,150.7,213L150.7,213z"/>
</svg>
