<?xml version="1.0" encoding="utf-8"?>
<!-- Generator: Adobe Illustrator 25.2.1, SVG Export Plug-In . SVG Version: 6.00 Build 0)  -->
<svg version="1.1" id="Calque_1" xmlns="http://www.w3.org/2000/svg" xmlns:xlink="http://www.w3.org/1999/xlink" x="0px" y="0px"
	 viewBox="0 0 32 26.3" style="enable-background:new 0 0 32 26.3;" xml:space="preserve">
<style type="text/css">
	.st0{fill:#717070;}
</style>
<g id="Groupe_6275" transform="translate(-862 -287)">
	<g id="Groupe_6273" transform="translate(-4 -286)">
		<path id="Rectangle_205" class="st0" d="M871.8,574.4h7.8c0.9,0,1.6,0.7,1.6,1.6v7.8c0,0.9-0.7,1.6-1.6,1.6h-7.8
			c-0.9,0-1.6-0.7-1.6-1.6V576C870.3,575.1,871,574.4,871.8,574.4z"/>
		<path id="Rectangle_206" class="st0" d="M884.3,574.4h7.8c0.9,0,1.6,0.7,1.6,1.6v7.8c0,0.9-0.7,1.6-1.6,1.6h-7.8
			c-0.9,0-1.6-0.7-1.6-1.6V576C882.8,575.1,883.5,574.4,884.3,574.4z"/>
		<path id="Rectangle_207" class="st0" d="M884.3,586.9h7.8c0.9,0,1.6,0.7,1.6,1.6v7.8c0,0.9-0.7,1.6-1.6,1.6h-7.8
			c-0.9,0-1.6-0.7-1.6-1.6v-7.8C882.8,587.6,883.5,586.9,884.3,586.9z"/>
		<path id="Rectangle_208" class="st0" d="M871.8,586.9h7.8c0.9,0,1.6,0.7,1.6,1.6v7.8c0,0.9-0.7,1.6-1.6,1.6h-7.8
			c-0.9,0-1.6-0.7-1.6-1.6v-7.8C870.3,587.6,871,586.9,871.8,586.9z"/>
	</g>
</g>
</svg>
