<?xml version="1.0" encoding="utf-8"?>
<!-- Generator: Adobe Illustrator 25.2.1, SVG Export Plug-In . SVG Version: 6.00 Build 0)  -->
<svg version="1.1" id="Calque_1" xmlns="http://www.w3.org/2000/svg" xmlns:xlink="http://www.w3.org/1999/xlink" x="0px" y="0px"
	 viewBox="0 0 32 26.3" style="enable-background:new 0 0 32 26.3;" xml:space="preserve">
<style type="text/css">
	.st0{fill:#5F5F5E;}
</style>
<g id="Groupe_6213">
	<g id="Groupe_6212">
		<path id="Tracé_4579" class="st0" d="M12.2,10.5V6.2c0-1.6,1.3-2.9,2.9-2.9S18,4.5,18,6.2v4.4c2.4-1.6,3.1-4.9,1.5-7.3
			s-4.9-3.1-7.3-1.5s-3.1,4.9-1.5,7.3C11.1,9.7,11.6,10.1,12.2,10.5z M23.7,15.9l-5.3-2.6c-0.2-0.1-0.4-0.1-0.6-0.1h-0.9v-7
			c0-1-0.8-1.7-1.8-1.7c-0.9,0-1.7,0.8-1.7,1.7v12.5c-4.2-0.9-4.1-0.9-4.3-0.9c-0.3,0-0.7,0.1-0.9,0.4l-0.9,0.9l5.8,5.8
			c0.3,0.3,0.8,0.5,1.2,0.5h7.9c0.9,0,1.6-0.6,1.7-1.5l0.9-6.2C24.9,17,24.4,16.2,23.7,15.9L23.7,15.9z"/>
	</g>
</g>
</svg>
