<?xml version="1.0" encoding="utf-8"?>
<!-- Generator: Adobe Illustrator 25.2.1, SVG Export Plug-In . SVG Version: 6.00 Build 0)  -->
<svg version="1.1" id="Calque_1" xmlns="http://www.w3.org/2000/svg" xmlns:xlink="http://www.w3.org/1999/xlink" x="0px" y="0px"
	 viewBox="0 0 32 26.3" style="enable-background:new 0 0 32 26.3;" xml:space="preserve">
<style type="text/css">
	.st0{fill:none;}
	.st1{fill:#ECA10D;}
</style>
<path id="Tracé_4580" class="st0" d="M2.8,0h26.3v26.3H2.8V0z"/>
<path id="Tracé_5309" class="st1" d="M24.7,3.3h-1.2V0.8H21v2.5H11V0.8H8.5v2.5H7.3c-1.4,0-2.5,1.1-2.5,2.5c0,0,0,0,0,0l0,17.3
	c0,1.4,1.1,2.5,2.5,2.5c0,0,0,0,0,0h17.4c1.4,0,2.5-1.1,2.5-2.5V5.7C27.2,4.4,26.1,3.3,24.7,3.3z M24.7,23.1H7.3V10.7h17.4V23.1z
	 M22.2,14.4H16v6.2h6.2V14.4z"/>
</svg>
