<svg xmlns="http://www.w3.org/2000/svg" enable-background="new 0 0 24 24" height="24" width="24"><rect id="backgroundrect" width="100%" height="100%" x="0" y="0" fill="none" stroke="none"/><g class="currentLayer" style=""><title>Layer 1</title><g id="svg_1" class=""><rect fill="none" height="24" width="24" id="svg_2"/></g><g id="svg_3" class="" fill="#5e5e5e" fill-opacity="1"><g id="svg_4" fill="#5e5e5e" fill-opacity="1"/><g id="svg_5" fill="#5e5e5e" fill-opacity="1"><path d="M17,19.22H5V7h7V5H5C3.9,5,3,5.9,3,7v12c0,1.1,0.9,2,2,2h12c1.1,0,2-0.9,2-2v-7h-2V19.22z" id="svg_6" fill="#5e5e5e" fill-opacity="1"/><path d="M19,2h-2v3h-3c0.01,0.01,0,2,0,2h3v2.99c0.01,0.01,2,0,2,0V7h3V5h-3V2z" id="svg_7" fill="#5e5e5e" fill-opacity="1"/><rect height="2" width="8" x="7" y="9" id="svg_8" fill="#5e5e5e" fill-opacity="1"/><polygon points="7,12 7,14 15,14 15,12 12,12" id="svg_9" fill="#5e5e5e" fill-opacity="1"/><rect height="2" width="8" x="7" y="15" id="svg_10" fill="#5e5e5e" fill-opacity="1"/></g></g></g></svg>