<?xml version="1.0" encoding="utf-8"?>
<!-- Generator: Adobe Illustrator 25.2.1, SVG Export Plug-In . SVG Version: 6.00 Build 0)  -->
<svg version="1.1" id="Calque_1" xmlns="http://www.w3.org/2000/svg" xmlns:xlink="http://www.w3.org/1999/xlink" x="0px" y="0px"
	 viewBox="0 0 32 26.3" style="enable-background:new 0 0 32 26.3;" xml:space="preserve">
<style type="text/css">
	.st0{fill:none;}
	.st1{fill:#5F5F5E;}
</style>
<path id="Tracé_4580" class="st0" d="M2.8,0h26.3v26.3H2.8V0z"/>
<path id="Tracé_4581" class="st1" d="M16,4.9c-5.3,0-10.1,3.3-12.1,8.2c2.6,6.7,10.1,9.9,16.8,7.3c3.4-1.3,6-4,7.3-7.3
	C26.1,8.2,21.3,4.9,16,4.9z M16,18.7c-3,0-5.5-2.5-5.5-5.5S13,7.7,16,7.7s5.5,2.5,5.5,5.5l0,0C21.5,16.2,19,18.7,16,18.7z M16,9.9
	c-1.8,0-3.3,1.5-3.3,3.3s1.5,3.3,3.3,3.3s3.3-1.5,3.3-3.3l0,0C19.3,11.3,17.8,9.9,16,9.9C16,9.9,16,9.9,16,9.9z"/>
</svg>
