<svg id="Groupe_6710" data-name="Groupe 6710" xmlns="http://www.w3.org/2000/svg" xmlns:xlink="http://www.w3.org/1999/xlink" width="10.498" height="12.87" viewBox="0 0 10.498 12.87">
  <defs>
    <clipPath id="clip-path">
      <rect id="Rectangle_431" data-name="Rectangle 431" width="10.498" height="12.87" fill="#c94040"/>
    </clipPath>
  </defs>
  <g id="Groupe_6707" data-name="Groupe 6707" clip-path="url(#clip-path)">
    <path id="Tracé_9466" data-name="Tracé 9466" d="M8.754,0H1.719A1.743,1.743,0,0,0,0,1.762V11.828a1.029,1.029,0,0,0,.616.949.967.967,0,0,0,1.072-.166l3.3-2.92a.425.425,0,0,1,.53,0l3.3,2.92a.98.98,0,0,0,1.072.166,1.029,1.029,0,0,0,.616-.949V1.762A1.743,1.743,0,0,0,8.773,0Z" transform="translate(0)" fill="#c94040"/>
  </g>
</svg>
