<svg xmlns="http://www.w3.org/2000/svg" height="24" width="24"><rect id="backgroundrect" width="100%" height="100%" x="0" y="0" fill="none" stroke="none"/><g class="currentLayer" style=""><title>Layer 1</title><path d="M0 0h24v24H0V0z" fill="none" id="svg_1"/><path d="M17.52910053730011,3 H5.52910053730011 c-1.11,0 -2,0.9 -2,2 v14 c0,1.1 0.8900000000000001,2 2,2 h14 c1.1,0 2,-0.9 2,-2 V7 l-4,-4 zm2,16 H5.52910053730011 V5 h11.17 L19.52910053730011,7.83 V19 zm-7,-7 c-1.6600000000000001,0 -3,1.34 -3,3 s1.34,3 3,3 s3,-1.34 3,-3 s-1.34,-3 -3,-3 zM6.52910053730011,6 h9 v4 H6.52910053730011 z" id="svg_2" class="" fill-opacity="1" fill="#dadada"/></g></svg>