<svg xmlns="http://www.w3.org/2000/svg" width="9.216" height="9.216" viewBox="0 0 9.216 9.216">
  <g id="Groupe_6887" data-name="Groupe 6887" transform="translate(-33.139 -2.047)">
    <path id="Tracé_9511" data-name="Tracé 9511" d="M9.7,14.181a4.608,4.608,0,1,1,4.608-4.608A4.613,4.613,0,0,1,9.7,14.181Zm0-8.23A3.438,3.438,0,0,0,6.086,9.572,3.44,3.44,0,0,0,9.7,13.2a3.423,3.423,0,0,0,3.594-3.624A3.422,3.422,0,0,0,9.7,5.95Z" transform="translate(28.046 -2.918)" fill="#fff" opacity="0.75"/>
    <path id="Tracé_9514" data-name="Tracé 9514" d="M.244-2.579h-.7q-.219,0-.219-.21l.037-3.867h.7q.219,0,.219.21ZM.381-7.886A.48.48,0,0,1,.244-7.5a.663.663,0,0,1-.429.114A.66.66,0,0,1-.618-7.5.489.489,0,0,1-.75-7.886a.491.491,0,0,1,.132-.383.642.642,0,0,1,.433-.119.645.645,0,0,1,.429.119A.482.482,0,0,1,.381-7.886Z" transform="translate(38.037 12.138)" fill="#fff" opacity="0.75"/>
  </g>
</svg>
