<svg xmlns="http://www.w3.org/2000/svg" width="17.454" height="16" viewBox="0 0 17.454 16">
  <g id="galerie-dimages" transform="translate(-0.001 -2)">
    <g id="Groupe_6881" data-name="Groupe 6881" transform="translate(0.001 4.182)">
      <g id="Groupe_6880" data-name="Groupe 6880" transform="translate(0 2.86)">
        <path id="Tracé_9514" data-name="Tracé 9514" d="M4.546,16.618A2.723,2.723,0,0,1,1.97,14.763l-.025-.084a2.653,2.653,0,0,1-.126-.788V8.932L.054,14.821a1.652,1.652,0,0,0,1.158,2l11.246,3.012a1.668,1.668,0,0,0,.419.054A1.621,1.621,0,0,0,14.448,18.7l.655-2.084Z" transform="translate(-0.001 -8.932)" fill="#0081c7"/>
      </g>
      <path id="Tracé_9515" data-name="Tracé 9515" d="M8.455,7.909A1.455,1.455,0,1,0,7,6.455,1.456,1.456,0,0,0,8.455,7.909Z" transform="translate(-1.91 -5)" fill="#0081c7"/>
    </g>
    <path id="Tracé_9516" data-name="Tracé 9516" d="M16.727,2H5.818A1.821,1.821,0,0,0,4,3.818v8a1.821,1.821,0,0,0,1.818,1.818H16.727a1.821,1.821,0,0,0,1.818-1.818v-8A1.821,1.821,0,0,0,16.727,2ZM5.818,3.455H16.727a.364.364,0,0,1,.364.364V8.981L14.793,6.3a1.3,1.3,0,0,0-.975-.447,1.272,1.272,0,0,0-.972.459l-2.7,3.242-.88-.878a1.276,1.276,0,0,0-1.8,0L5.455,10.683V3.818a.364.364,0,0,1,.364-.364Z" transform="translate(-1.091)" fill="#0081c7"/>
  </g>
</svg>
