<?xml version="1.0" encoding="utf-8"?>
<!-- Generator: Adobe Illustrator 25.1.0, SVG Export Plug-In . SVG Version: 6.00 Build 0)  -->
<svg version="1.1" id="SvgjsSvg1012" xmlns:svgjs="http://svgjs.com/svgjs"
	 xmlns="http://www.w3.org/2000/svg" xmlns:xlink="http://www.w3.org/1999/xlink" x="0px" y="0px" viewBox="0 0 288 288"
	 style="enable-background:new 0 0 288 288;" xml:space="preserve">
<style type="text/css">
	.st0{fill:none;}
	.st1{fill:#707070;}
</style>
<g id="SvgjsG1014">
	<path class="st0" d="M25.2,25.7h236.7v236.7H25.2V25.7z"/>
	<path class="st1" d="M222.3,55.4h-10.8V32.9H189v22.5H99V32.9H76.5v22.5H65.7c-12.6,0-22.5,9.9-22.5,22.5l0,0v155.7
		c0,12.6,9.9,22.5,22.5,22.5l0,0h156.6c12.6,0,22.5-9.9,22.5-22.5V76.9C244.8,65.2,234.9,55.4,222.3,55.4z M222.3,233.6H65.7V121.9
		h156.6V233.6z M199.8,155.2H144V211h55.8V155.2z"/>
</g>
</svg>
