<svg xmlns="http://www.w3.org/2000/svg" width="270.326" height="270.326" viewBox="0 0 270.326 270.326">
  <g id="Groupe_6885" data-name="Groupe 6885" transform="translate(-557.994 -387.774)">
    <rect id="Rectangle_418" data-name="Rectangle 418" width="270.326" height="270.326" rx="10" transform="translate(557.994 387.774)" fill="#cbcbcb"/>
    <g id="gallery" transform="translate(668.807 501.733)">
      <g id="Groupe_6458" data-name="Groupe 6458" transform="translate(0 0)">
        <g id="Groupe_6457" data-name="Groupe 6457" transform="translate(0 0)">
          <path id="Tracé_5367" data-name="Tracé 5367" d="M178.92,159.668a4.931,4.931,0,1,0,4.931,4.931A4.931,4.931,0,0,0,178.92,159.668Zm0,7.514a2.583,2.583,0,1,1,0-5.166h0a2.583,2.583,0,1,1,0,5.166Z" transform="translate(-154.44 -144.714)" fill="#707070"/>
          <path id="Tracé_5368" data-name="Tracé 5368" d="M44.146,30.259,12.094,26.62a4.4,4.4,0,0,0-3.463,1,4.461,4.461,0,0,0-1.7,3.052l-.587,4.814H4.522A4.717,4.717,0,0,0,0,40.356V64.365a4.461,4.461,0,0,0,4.342,4.578q.089,0,.178,0H36.749a4.819,4.819,0,0,0,4.931-4.579v-.939a5.87,5.87,0,0,0,2.231-.939,4.873,4.873,0,0,0,1.7-3.17l2.7-23.833A4.755,4.755,0,0,0,44.146,30.259ZM39.332,64.365A2.472,2.472,0,0,1,36.749,66.6H4.522a2.113,2.113,0,0,1-2.174-2.05q0-.09,0-.18V60.021l9.1-6.692a2.818,2.818,0,0,1,3.64.176l6.4,5.635a5.518,5.518,0,0,0,3.463,1.291,5.342,5.342,0,0,0,2.818-.763l11.564-6.692V64.365Zm0-14.147-12.8,7.455a2.994,2.994,0,0,1-3.463-.293l-6.457-5.694a5.225,5.225,0,0,0-6.516-.235L2.35,57.086V40.356a2.37,2.37,0,0,1,2.172-2.524H36.749a2.7,2.7,0,0,1,2.583,2.524v9.862Zm6.636-15.051c0,.008,0,.016,0,.023L43.206,59.023a2,2,0,0,1-.763,1.585c-.235.235-.763.352-.763.47V40.356a5.048,5.048,0,0,0-4.931-4.872H8.689L9.218,30.9a2.7,2.7,0,0,1,.881-1.526,2.7,2.7,0,0,1,1.761-.47l31.993,3.7A2.348,2.348,0,0,1,45.968,35.167Z" transform="translate(0 -26.576)" fill="#707070"/>
        </g>
      </g>
    </g>
  </g>
</svg>
