<?xml version="1.0" encoding="utf-8"?>
<!-- Generator: Adobe Illustrator 26.0.2, SVG Export Plug-In . SVG Version: 6.00 Build 0)  -->
<svg version="1.1" id="Calque_1" xmlns="http://www.w3.org/2000/svg" xmlns:xlink="http://www.w3.org/1999/xlink" x="0px" y="0px"
	 viewBox="0 0 26.9 26.9" style="enable-background:new 0 0 26.9 26.9;" xml:space="preserve">
<style type="text/css">
	.st0{fill:none;}
	.st1{fill:#717070;}
</style>
<path id="Tracé_5339" class="st0" d="M0,0h26.9v26.9H0V0z"/>
<path id="Tracé_5340" class="st1" d="M20.2,22.4H4.5V6.7h10.1V4.5H4.5c-1.2,0-2.2,1-2.2,2.2v15.7c0,1.2,1,2.2,2.2,2.2h15.7
	c1.2,0,2.2-1,2.2-2.2V12.3h-2.2V22.4z M11.5,18.9l-2.2-2.6l-3.1,4h12.3l-4-5.3L11.5,18.9z M22.4,4.5V1.1h-2.2v3.4h-3.4
	c0,0,0,2.2,0,2.2h3.4v3.4c0,0,2.2,0,2.2,0V6.7h3.4V4.5H22.4z"/>
</svg>
