<?xml version="1.0" encoding="utf-8"?>
<!-- Generator: Adobe Illustrator 26.0.3, SVG Export Plug-In . SVG Version: 6.00 Build 0)  -->
<svg version="1.1" id="Calque_1" xmlns="http://www.w3.org/2000/svg" xmlns:xlink="http://www.w3.org/1999/xlink" x="0px" y="0px"
	 viewBox="0 0 14.3 14.3" style="enable-background:new 0 0 14.3 14.3;" xml:space="preserve">
<style type="text/css">
	.st0{fill:none;}
	.st1{fill:#717070;}
</style>
<path id="Tracé_5429" class="st0" d="M0,0h14.3v14.3H0V0z"/>
<path id="Tracé_5430" class="st1" d="M13.1,9.5V2.4c0-0.7-0.5-1.2-1.2-1.2H4.8c-0.7,0-1.2,0.5-1.2,1.2v7.2c0,0.7,0.5,1.2,1.2,1.2
	h7.2C12.6,10.7,13.1,10.2,13.1,9.5z M6.6,7.2l1.2,1.6l1.8-2.2l2.4,3H4.8L6.6,7.2z M1.2,3.6v8.3c0,0.7,0.5,1.2,1.2,1.2h8.3v-1.2H2.4
	V3.6H1.2z"/>
</svg>
