<?xml version="1.0" encoding="utf-8"?>
<!-- Generator: Adobe Illustrator 26.0.2, SVG Export Plug-In . SVG Version: 6.00 Build 0)  -->
<svg version="1.1" id="Calque_1" xmlns="http://www.w3.org/2000/svg" xmlns:xlink="http://www.w3.org/1999/xlink" x="0px" y="0px"
	 viewBox="0 0 172 171" style="enable-background:new 0 0 172 171;" xml:space="preserve">
<style type="text/css">
	.st0{fill:#CCCBCB;}
	.st1{fill:url(#Tracé_9512-2_00000017498182046420234770000015976180523197099649_);}
	.st2{opacity:0.4;}
	.st3{fill:#717070;}
</style>
<g id="Groupe_6616" transform="translate(-855 -944)">
	<path id="Tracé_5428" class="st0" d="M865,944h152c5.5,0,10,4.5,10,10v151c0,5.5-4.5,10-10,10H865c-5.5,0-10-4.5-10-10V954
		C855,948.5,859.5,944,865,944z"/>
	<g transform="matrix(1, 0, 0, 1, 855, 944)">
		
			<linearGradient id="Tracé_9512-2_00000001665936574106588660000008395674363012644782_" gradientUnits="userSpaceOnUse" x1="-116.8112" y1="381.8016" x2="-116.8112" y2="380.8016" gradientTransform="matrix(172 0 0 -171 20177.5293 65288.0742)">
			<stop  offset="0" style="stop-color:#FFFFFF;stop-opacity:0"/>
			<stop  offset="0.611" style="stop-color:#FFFFFF"/>
			<stop  offset="1" style="stop-color:#FFFFFF"/>
		</linearGradient>
		<path id="Tracé_9512-2" style="fill:url(#Tracé_9512-2_00000001665936574106588660000008395674363012644782_);" d="M10,0h152
			c5.5,0,10,4.5,10,10v151c0,5.5-4.5,10-10,10H10c-5.5,0-10-4.5-10-10V10C0,4.5,4.5,0,10,0z"/>
	</g>
	<g id="Groupe_6615" transform="translate(942.102 1001.785)" class="st2">
		<path id="Tracé_5367" class="st3" d="M-0.9-6.4c-1.6,0-2.8,1.3-2.8,2.8s1.3,2.8,2.8,2.8c1.6,0,2.8-1.3,2.8-2.8
			C1.9-5.1,0.6-6.4-0.9-6.4L-0.9-6.4z M-0.9-2.1c-0.8,0-1.5-0.7-1.5-1.5s0.7-1.5,1.5-1.5l0,0l0,0c0.8,0,1.5,0.7,1.5,1.5
			S-0.1-2.1-0.9-2.1z"/>
		<path id="Tracé_5368" class="st3" d="M10.4-12.9L-8-15c-0.7-0.1-1.4,0.1-2,0.6c-0.6,0.4-0.9,1.1-1,1.8l-0.3,2.8h-1
			C-13.9-9.8-15-8.6-15-7.1V6.7c0,1.4,1.1,2.6,2.5,2.6c0,0,0,0,0,0H6.1c1.5,0,2.8-1.1,2.8-2.6V6.2c0.5-0.1,0.9-0.3,1.3-0.5
			c0.5-0.5,0.9-1.1,1-1.8l1.6-13.7C12.9-11.4,11.9-12.7,10.4-12.9z M7.6,6.7C7.5,7.5,6.9,8,6.1,8h-18.5c-0.7,0-1.2-0.5-1.2-1.2
			c0,0,0,0,0,0c0,0,0-0.1,0-0.1V4.2l5.2-3.8c0.6-0.5,1.5-0.4,2.1,0.1l3.7,3.2c0.6,0.5,1.3,0.7,2,0.7C-0.1,4.5,0.5,4.3,1,4l6.7-3.8
			L7.6,6.7L7.6,6.7z M7.6-1.4L0.3,2.9c-0.6,0.4-1.4,0.3-2-0.2l-3.7-3.3c-1.1-0.9-2.6-1-3.7-0.1l-4.5,3.2v-9.6
			c-0.1-0.7,0.5-1.4,1.2-1.5H6.1c0.8,0,1.4,0.7,1.5,1.5V-1.4z M11.4-10.1L11.4-10.1L9.8,3.7c0,0.4-0.2,0.7-0.4,0.9
			C9.3,4.7,9,4.8,9,4.8V-7.1C8.9-8.6,7.7-9.8,6.1-9.9H-10l0.3-2.6c0.1-0.3,0.2-0.7,0.5-0.9c0.3-0.2,0.7-0.3,1-0.3l18.4,2.1
			C11-11.5,11.5-10.8,11.4-10.1L11.4-10.1z"/>
	</g>
</g>
</svg>
