<svg xmlns="http://www.w3.org/2000/svg" width="171.095" height="36.184" viewBox="0 0 171.095 36.184">
  <g id="Groupe_5901" data-name="Groupe 5901" transform="translate(-260.884 -449.431)">
    <g id="Groupe_5899" data-name="Groupe 5899" transform="translate(260.884 449.431)">
      <path id="Tracé_3057" data-name="Tracé 3057" d="M294.482,449.431H262.471a1.587,1.587,0,0,0-1.587,1.587v32.011a1.587,1.587,0,0,0,1.587,1.587H277.82a1.588,1.588,0,0,0,1.122-.465L295.6,467.489a1.587,1.587,0,0,0,.465-1.122V451.018A1.587,1.587,0,0,0,294.482,449.431Zm-6.8,17.591h-9.207v9.189H269.27v-18.4h18.414Z" transform="translate(-260.884 -449.431)" fill="#0081c7"/>
      <g id="Groupe_5898" data-name="Groupe 5898" transform="translate(44.01 4.882)">
        <path id="Tracé_3058" data-name="Tracé 3058" d="M404.14,481.36h4.626l-8.278,17.772-4-8.521-3.965,8.487L383.9,481.36h4.626l3.93,8.034,4.034-8.625,4,8.521Z" transform="translate(-383.898 -474.439)" fill="#1d1d1b"/>
        <path id="Tracé_3059" data-name="Tracé 3059" d="M466.053,482.207h4.173V499.6h-4.173v-2.052a6.506,6.506,0,0,1-5.043,2.226c-4.8,0-8.382-4-8.382-8.869,0-4.9,3.582-8.869,8.382-8.869a6.57,6.57,0,0,1,5.043,2.156Zm0,8.695a5.086,5.086,0,0,0-1.426-3.548,4.641,4.641,0,0,0-3.3-1.426,4.563,4.563,0,0,0-3.269,1.426,4.938,4.938,0,0,0-1.426,3.548,5,5,0,0,0,1.426,3.548,4.668,4.668,0,0,0,3.269,1.391,4.6,4.6,0,0,0,3.3-1.391A5,5,0,0,0,466.053,490.9Z" transform="translate(-428.039 -475.251)" fill="#1d1d1b"/>
        <path id="Tracé_3060" data-name="Tracé 3060" d="M510.567,487.422V463.076h4.174v24.346Z" transform="translate(-465.249 -463.076)" fill="#1d1d1b"/>
        <path id="Tracé_3061" data-name="Tracé 3061" d="M530.981,487.422V463.076h4.174v24.346Z" transform="translate(-478.36 -463.076)" fill="#1d1d1b"/>
        <path id="Tracé_3062" data-name="Tracé 3062" d="M555.569,497.614v8.938H551.4V482.207h4.174v2.052a6.506,6.506,0,0,1,5.043-2.226c4.8,0,8.382,4,8.382,8.869,0,4.9-3.582,8.869-8.382,8.869A6.57,6.57,0,0,1,555.569,497.614Zm4.73-11.651a4.605,4.605,0,0,0-3.3,1.391,5.147,5.147,0,0,0-1.426,3.548,5.084,5.084,0,0,0,1.426,3.548,4.639,4.639,0,0,0,3.3,1.426,4.561,4.561,0,0,0,3.269-1.426,4.937,4.937,0,0,0,1.426-3.548,5,5,0,0,0-1.426-3.548A4.527,4.527,0,0,0,560.3,485.963Z" transform="translate(-491.47 -475.251)" fill="#1d1d1b"/>
        <path id="Tracé_3063" data-name="Tracé 3063" d="M625.031,491a8.869,8.869,0,1,1-8.869-8.869A8.884,8.884,0,0,1,625.031,491Zm-12.173-3.339A4.684,4.684,0,0,0,611.467,491a4.7,4.7,0,0,0,9.39,0,4.7,4.7,0,0,0-8-3.339Z" transform="translate(-527.37 -475.313)" fill="#1d1d1b"/>
        <path id="Tracé_3064" data-name="Tracé 3064" d="M662.413,497.6l2.678-3.2a5.124,5.124,0,0,0,3.617,1.322,3.754,3.754,0,0,0,2.122-.522.965.965,0,0,0,.522-.939c0-.66-1.113-1.252-2.713-1.391a7.407,7.407,0,0,1-4.73-1.843,4.613,4.613,0,0,1-1.322-3.373v-.313a5.07,5.07,0,0,1,1.913-3.583,6.956,6.956,0,0,1,4.591-1.53,9.037,9.037,0,0,1,6.087,2.3l-2.922,2.991.035.035a4.971,4.971,0,0,0-3.2-1.148,2.857,2.857,0,0,0-1.913.556.948.948,0,0,0-.418.591c0,.418.069.487.139.556.1.1.557.452,2.122.591a8.5,8.5,0,0,1,4.556,1.635,4.991,4.991,0,0,1,1.947,3.93,5.14,5.14,0,0,1-2.4,4.452,8.205,8.205,0,0,1-4.417,1.182A9.26,9.26,0,0,1,662.413,497.6Z" transform="translate(-562.77 -475.375)" fill="#1d1d1b"/>
        <path id="Tracé_3065" data-name="Tracé 3065" d="M716.827,492.1a6.684,6.684,0,0,1-2.5.487,6.813,6.813,0,0,1-6.782-6.782V479.2h-3.13v-4.174h3.13v-4.174h4.174v4.174h3.13V479.2h-3.13v6.608a2.667,2.667,0,0,0,.765,1.843,2.6,2.6,0,0,0,1.843.765,3.041,3.041,0,0,0,1.113-.243Z" transform="translate(-589.743 -468.071)" fill="#1d1d1b"/>
      </g>
    </g>
  </g>
</svg>
