<svg version="1.1" id="Layer_1" xmlns="http://www.w3.org/2000/svg" xmlns:xlink="http://www.w3.org/1999/xlink" x="0" y="0" viewBox="0 0 369 686" xml:space="preserve" enable-background="new 0 0 369 686"><style>.st0{fill:#dadce0}.st1,.st2{fill:#f8f9fa;stroke:#dadce0;stroke-width:2}.st2{fill:none}.st3{fill:#fff}.st11,.st8,.st9{fill-rule:evenodd;clip-rule:evenodd;fill:#d93025}.st11,.st9{fill:#1a73e8}.st11{fill:#fff}.st14{fill:none;stroke:#dadce0}.st16{fill:#f8f9fa}.st17{fill:#e8eaed}.st21{fill-rule:evenodd;clip-rule:evenodd;fill:#dadce0}.st25{fill:none;stroke:#bdc1c6;stroke-width:6}</style><filter color-interpolation-filters="sRGB" filterUnits="userSpaceOnUse" height="94" id="filter0_dd" width="94" x="275" y="17"><feFlood flood-opacity="0" result="BackgroundImageFix"/><feColorMatrix in="SourceAlpha" values="0 0 0 0 0 0 0 0 0 0 0 0 0 0 0 0 0 0 127 0"/><feOffset dy="1"/><feGaussianBlur stdDeviation="1.5"/><feColorMatrix values="0 0 0 0 0.235294 0 0 0 0 0.25098 0 0 0 0 0.262745 0 0 0 0.3 0"/><feBlend in2="BackgroundImageFix" result="effect1_dropShadow"/><feColorMatrix in="SourceAlpha" values="0 0 0 0 0 0 0 0 0 0 0 0 0 0 0 0 0 0 127 0"/><feMorphology in="SourceAlpha" operator="dilate" radius="3" result="effect2_dropShadow"/><feOffset dy="4"/><feGaussianBlur stdDeviation="4"/><feColorMatrix values="0 0 0 0 0.235294 0 0 0 0 0.25098 0 0 0 0 0.262745 0 0 0 0.15 0"/><feBlend in2="effect1_dropShadow" result="effect2_dropShadow"/><feBlend in="SourceGraphic" in2="effect2_dropShadow" result="shape"/></filter><path class="st0" d="M338 155.9h1.3l1.3.1a2 2 0 011.4 1.4l.1 1.3v41.6l-.1 1.3a2 2 0 01-1.4 1.4l-1.3.1H338v-47.2zM338 243h1.3l1.3.1a2 2 0 011.4 1.4l.1 1.3v88.6l-.1 1.3a2 2 0 01-1.4 1.4l-1.3.1H338V243z"/><path class="st1" d="M44 1h266a27 27 0 0127 27v630a27 27 0 01-27 27H44a27 27 0 01-27-27V28A27 27 0 0144 1z"/><path class="st1" d="M21 29A24 24 0 0145 5h264a24 24 0 0124 24v628a24 24 0 01-24 24H45a24 24 0 01-24-24V29z"/><path class="st2" d="M124 36.6a6 6 0 006-6c0-3.3-2.7-6-6-6s-6 2.7-6 6a6 6 0 006 6zM162 28.4h30a2 2 0 012 2 2 2 0 01-2 2h-30a2 2 0 01-2-2c0-1.1.9-2 2-2z"/><path class="st3" d="M50 60h254a18 18 0 0118 18v574a18 18 0 01-18 18H50a18 18 0 01-18-18V78a18 18 0 0118-18z"/><path d="M50 60.5h254c9.7 0 17.5 7.8 17.5 17.5v574c0 9.7-7.8 17.5-17.5 17.5H50c-9.7 0-17.5-7.8-17.5-17.5V78c0-9.7 7.8-17.5 17.5-17.5z" fill="#fff" stroke="#d93025"/><defs><path id="SVGID_1_" d="M140 72.3h74v23.5h-74z"/></defs><clipPath id="SVGID_2_"><use xlink:href="#SVGID_1_" overflow="visible"/></clipPath><g clip-path="url(#SVGID_2_)"><path d="M178 78.6a5.8 5.8 0 00-5.8 5.9c0 3.4 2.6 5.9 5.8 5.9s5.8-2.5 5.8-5.9c0-3.4-2.6-5.9-5.8-5.9zm0 9.5c-1.8 0-3.3-1.5-3.3-3.6s1.5-3.6 3.3-3.6 3.3 1.5 3.3 3.6-1.5 3.6-3.3 3.6z" fill-rule="evenodd" clip-rule="evenodd" fill="#f9ab00"/><path d="M198 90.4h2.5V72.5H198v17.9z" fill-rule="evenodd" clip-rule="evenodd" fill="#1e8e3e"/><path class="st8" d="M208.3 88.1c-1.3 0-2.2-.6-2.8-1.8l7.8-3.3-.3-.7c-.5-1.3-2-3.8-5-3.8s-5.5 2.4-5.5 5.9a5.8 5.8 0 0010.6 3.3l-2-1.3a3 3 0 01-2.8 1.7zm-.2-7.3c1 0 1.9.5 2.2 1.3l-5.2 2.2c-.1-2.5 1.7-3.5 3-3.5z"/><path class="st9" d="M149.2 80.6v2.5h5.9a5.9 5.9 0 01-1.3 3.2 6 6 0 01-4.5 1.8c-3.6 0-6.5-3-6.5-6.7s2.8-6.7 6.5-6.7c1.9 0 3.4.8 4.4 1.8l1.7-1.8a8.3 8.3 0 00-6.2-2.6 9.2 9.2 0 000 18.4c2.7 0 4.7-.9 6.3-2.6 1.6-1.7 2.1-4 2.1-5.9l-.1-1.6h-8.3z"/><path class="st8" d="M165 78.6a5.8 5.8 0 00-5.8 5.9c0 3.4 2.6 5.9 5.8 5.9s5.8-2.5 5.8-5.9c0-3.4-2.6-5.9-5.8-5.9zm0 9.5c-1.8 0-3.3-1.5-3.3-3.6s1.5-3.6 3.3-3.6 3.3 1.5 3.3 3.6-1.5 3.6-3.3 3.6z"/><path class="st9" d="M193.6 79.9a4.5 4.5 0 00-3.2-1.3c-2.9 0-5.4 2.6-5.4 5.9 0 3.3 2.5 5.9 5.4 5.9a4 4 0 003.1-1.3h.1v.8c0 2.3-1.2 3.5-3.1 3.5-1.6 0-2.5-1.1-2.9-2.1l-2.2.9a5.4 5.4 0 005.1 3.5c3 0 5.5-1.8 5.5-6.2V78.9h-2.4v1zm-3 8.2c-1.8 0-3.1-1.5-3.1-3.6s1.3-3.6 3.1-3.6c1.7 0 3.1 1.5 3.1 3.6.1 2.1-1.3 3.6-3.1 3.6z"/></g><path d="M60 108.5h234c8.6 0 15.5 6.9 15.5 15.5h0c0 8.6-6.9 15.5-15.5 15.5H60c-8.6 0-15.5-6.9-15.5-15.5h0c0-8.6 6.9-15.5 15.5-15.5z" fill="#fff" stroke="#dadce0"/><path class="st0" d="M278 108h16c8.8 0 16 7.2 16 16s-7.2 16-16 16h-16v-32z"/><path class="st11" d="M296.3 125.1l4.8 4.8-1.2 1.2-4.8-4.8a5.4 5.4 0 01-8.5-4.4c0-3 2.4-5.4 5.4-5.4 3 0 5.4 2.4 5.4 5.4a6.8 6.8 0 01-1.1 3.2zm-4.4-6.9a3.8 3.8 0 100 7.6 3.8 3.8 0 000-7.6z"/><defs><filter id="Adobe_OpacityMaskFilter" filterUnits="userSpaceOnUse" x="32.5" y="152" width="385" height="20"><feColorMatrix values="1 0 0 0 0 0 1 0 0 0 0 0 1 0 0 0 0 0 1 0"/></filter></defs><mask maskUnits="userSpaceOnUse" x="32.5" y="152" width="385" height="20" id="mask0_1_"><path fill="#c4c4c4" filter="url(#Adobe_OpacityMaskFilter)" d="M33 152h288v20H33z"/></mask><g mask="url(#mask0_1_)"><path class="st3" d="M32.5 152h385v20h-385z"/><path class="st0" d="M48.5 152h45a4 4 0 014 4 4 4 0 01-4 4h-45a4 4 0 01-4-4 4 4 0 014-4zM53.5 171c0-1.1.9-2 2-2h32a2 2 0 012 2h-36zM125.5 152h45a4 4 0 014 4 4 4 0 01-4 4h-45a4 4 0 01-4-4 4 4 0 014-4zM202.5 152h45a4 4 0 014 4 4 4 0 01-4 4h-45a4 4 0 01-4-4 4 4 0 014-4zM279.5 152h45a4 4 0 014 4 4 4 0 01-4 4h-45a4 4 0 01-4-4 4 4 0 014-4z"/><path class="st14" d="M33 171.5h288"/></g><path class="st0" d="M53 184h115a8 8 0 018 8 8 8 0 01-8 8H53a8 8 0 01-8-8 8 8 0 018-8zM55 222.4l5.1 3.1-1.4-5.9 4.5-3.9-6-.5-2.3-5.5-2.3 5.5-6 .5 4.5 3.9-1.4 5.9 5.3-3.1zM75 222.4l5.2 3.1-1.4-5.9 4.6-3.9-6-.5-2.3-5.5-2.3 5.5-6 .5 4.6 3.9-1.4 5.9 5-3.1zM95 222.4l5.1 3.1-1.4-5.9 4.6-3.9-6-.5-2.3-5.5-2.3 5.5-6 .5 4.6 3.9-1.4 5.9 5.1-3.1zM115 222.4l5.2 3.1-1.4-5.9 4.6-3.9-6-.5-2.3-5.5-2.3 5.5-6 .5 4.6 3.9-1.4 5.9 5-3.1zM135 222.4l5.1 3.1-1.4-5.9 4.6-3.9-6-.5-2.3-5.5-2.3 5.5-6 .5 4.5 3.9-1.4 5.9 5.2-3.1zM49 236h98a4 4 0 014 4 4 4 0 01-4 4H49a4 4 0 01-4-4 4 4 0 014-4zM255.4 187.9h41.7V247h-41.7z"/><linearGradient id="SVGID_3_" gradientUnits="userSpaceOnUse" x1="276.3" y1="474.4" x2="276.3" y2="432" gradientTransform="matrix(1 0 0 -1 0 688)"><stop offset="0" stop-color="#9aa0a6"/><stop offset="1" stop-color="#bdc1c6"/></linearGradient><path fill="url(#SVGID_3_)" d="M255.4 193.1h41.7v54h-41.7z"/><path class="st0" d="M255.4 193.1h41.7l-10.4 23.1H245l10.4-23.1z"/><path class="st16" d="M260.7 226.5h13v20.6h-13zM278.9 226.5h13v10.3h-13z"/><path class="st17" d="M245 216.2h5.2v2.5c0 1.4-1.2 2.6-2.6 2.6a2.6 2.6 0 01-2.6-2.6v-2.5zM250.2 216.2h5.2v2.5c0 1.4-1.2 2.6-2.6 2.6a2.6 2.6 0 01-2.6-2.6v-2.5zM255.4 216.2h5.2v2.5c0 1.4-1.2 2.6-2.6 2.6a2.6 2.6 0 01-2.6-2.6v-2.5zM260.7 216.2h5.2v2.5c0 1.4-1.2 2.6-2.6 2.6a2.6 2.6 0 01-2.6-2.6v-2.5z"/><path class="st17" d="M265.9 216.2h5.2v2.5c0 1.4-1.2 2.6-2.6 2.6s-2.6-1.2-2.6-2.6v-2.5zM271.1 216.2h5.2v2.5c0 1.4-1.2 2.6-2.6 2.6a2.6 2.6 0 01-2.6-2.6v-2.5z"/><path class="st17" d="M276.3 216.2h5.2v2.5c0 1.4-1.2 2.6-2.6 2.6a2.6 2.6 0 01-2.6-2.6v-2.5z"/><path class="st17" d="M281.5 216.2h5.2v2.5c0 1.4-1.2 2.6-2.6 2.6s-2.6-1.2-2.6-2.6v-2.5z"/><path d="M297.2 187.9h.7c5.4 0 9.7 4.3 9.7 9.7V247h-10.4v-59.1z" fill="#bdc1c6"/><path class="st14" d="M33 262.5h288"/><defs><path id="SVGID_4_" d="M33 263h288v56H33z"/></defs><clipPath id="SVGID_5_"><use xlink:href="#SVGID_4_" overflow="visible"/></clipPath><g clip-path="url(#SVGID_5_)"><circle class="st0" cx="81" cy="291" r="16"/><path class="st3" d="M84.4 293l-2.2 2.2a12.8 12.8 0 01-5.4-5.4l2.2-2.2c.2-.2.3-.5.2-.8l-.5-2.7c-.1-.4-.4-.7-.8-.7h-3.5c-.5 0-.9.4-.8.9.1 2.4.9 4.7 2 6.7 1.3 2.2 3.2 4.1 5.4 5.4 2 1.2 4.2 1.9 6.7 2 .5 0 .9-.4.9-.8v-3.5c0-.4-.3-.7-.7-.8l-2.7-.5-.8.2z"/><circle class="st0" cx="145" cy="291" r="16"/><path class="st11" d="M152.8 289.8l-6.7-6.7c-.3-.3-.8-.5-1.2-.5s-.9.2-1.2.5l-6.7 6.7c-.7.6-.7 1.7 0 2.4l6.7 6.7c.3.3.8.5 1.2.5s.9-.2 1.2-.5l6.7-6.7c.7-.7.7-1.7 0-2.4zm-7.8 7.9l-6.7-6.7 6.7-6.7 6.7 6.7-6.7 6.7zm1-7.5l-2.2-2.2 1.2-1.2 4.2 4.2-4.2 4.2-1.2-1.2 2.2-2.2h-5.1v-1.7h5.1z"/><circle class="st0" cx="209" cy="291" r="16"/><path class="st11" d="M204.8 283.5h8.3c.9 0 1.7.8 1.7 1.7v13.3L209 296l-5.8 2.5v-13.3c0-1 .7-1.7 1.6-1.7zm4.2 10.7l4.2 1.8v-10.8h-8.3V296l4.1-1.8z"/><circle class="st0" cx="273" cy="291" r="16"/><path class="st11" d="M273 282.7a8.3 8.3 0 100 16.6 8.3 8.3 0 100-16.6zm-6.7 8.3l.2-1.5 4 4v.8c0 .9.8 1.7 1.7 1.7v1.6a6.7 6.7 0 01-5.9-6.6zm10 3.3c.8 0 1.4.5 1.6 1.2a6.6 6.6 0 00-2.4-10.7v.3c0 .9-.8 1.7-1.7 1.7h-1.7v1.7c0 .5-.4.8-.8.8h-1.7v1.7h5c.5 0 .8.4.8.8v2.5h.9z"/><path class="st14" d="M33 318.5h288"/></g><path class="st14" d="M33 390.5h288"/><path class="st0" d="M49 331h117a4 4 0 014 4 4 4 0 01-4 4H49a4 4 0 01-4-4 4 4 0 014-4zM49 351h150a4 4 0 014 4 4 4 0 01-4 4H49a4 4 0 01-4-4 4 4 0 014-4zM49 371h71a4 4 0 014 4 4 4 0 01-4 4H49a4 4 0 01-4-4 4 4 0 014-4z"/><path d="M297.1 360.6l-1.2-1.2 4.4-4.4-4.4-4.4 1.2-1.2 5.6 5.6-5.6 5.6z" fill="#5f6368"/><path class="st21" d="M57 430a7 7 0 00-7 7c0 5.2 7 13 7 13s7-7.8 7-13a7 7 0 00-7-7zm-5 7c0-2.8 2.2-5 5-5s5 2.2 5 5c0 2.9-2.9 7.2-5 9.9-2.1-2.7-5-7-5-9.9zm5 2.5c1.4 0 2.5-1.1 2.5-2.5s-1.1-2.5-2.5-2.5-2.5 1.1-2.5 2.5 1.1 2.5 2.5 2.5z"/><path class="st0" d="M85 416h114a4 4 0 014 4 4 4 0 01-4 4H85a4 4 0 01-4-4 4 4 0 014-4zM85 436h91.8a4 4 0 014 4 4 4 0 01-4 4H85a4 4 0 01-4-4 4 4 0 014-4zM85 456h91.8a4 4 0 014 4 4 4 0 01-4 4H85a4 4 0 01-4-4 4 4 0 014-4z"/><defs><filter id="Adobe_OpacityMaskFilter_1_" filterUnits="userSpaceOnUse" x="176" y="370" width="207" height="138.5"><feColorMatrix values="1 0 0 0 0 0 1 0 0 0 0 0 1 0 0 0 0 0 1 0"/></filter></defs><mask maskUnits="userSpaceOnUse" x="176" y="370" width="207" height="138.5" id="mask1_1_"><path fill="#dadce0" filter="url(#Adobe_OpacityMaskFilter_1_)" d="M221 391h100v100H221z"/></mask><g mask="url(#mask1_1_)"><path fill="#f1f3f4" d="M221 391h100v100H221z"/><path class="st0" d="M271.9 496.3l-8.2 1.3a9.3 9.3 0 01-.6-7.8 9.8 9.8 0 013.4-4.3l5.3 10.6.1.2z"/><path class="st0" d="M266.5 485.6c2.4-1.7 5.5-2.6 9-3.9l6.5 13a6.6 6.6 0 00-3.5-3c-2.9-1.2-6-.4-6.8 1.7-.4.9-.3 1.9.2 2.9l-5.4-10.7zM290.7 501.1c-.7 1.7-1.9 3-3.5 4l-5.2-10.4v-.1l-6.5-13 3.4-1.5c4.1-2 4-4.3 5.8-3.5 1.8.7.2 2.3 1.7 6.6 2.5 7.2 6.8 11.8 4.3 17.9z"/><path class="st25" d="M307.4 371.8l-98 135M275 418h-99M383 406h-99"/></g><path class="st0" d="M280.5 445.2l-7.1-5.9a14.7 14.7 0 00-3.5 9.6c0 2.8.6 5.1 1.5 7.1l8.9-10.6.2-.2zM284.9 434a15 15 0 00-11.4 5.3l7.1 5.9.1-.1 8.8-10.5c-1.5-.4-3-.6-4.6-.6z"/><path class="st0" d="M289.3 452.5l8.8-10.5a14.7 14.7 0 00-8.7-7.3l-8.9 10.5c1-1.2 2.6-2 4.4-2a5.7 5.7 0 014.4 9.3zM271.5 456c1.6 3.4 4.1 6.2 6.8 9.6l11-13.1a5.7 5.7 0 01-10.1-3.7c0-1.3.5-2.6 1.2-3.6l-8.9 10.8z"/><path class="st0" d="M299.8 448.9c0-2.5-.6-4.8-1.7-6.9l-8.8 10.5-.1.1-11 13.1 2.6 3.6c3 4.7 2.1 7.5 4 7.5 2 0 1.1-2.8 4.1-7.5 5.1-7.8 10.9-11.3 10.9-20.4z"/><path class="st14" d="M33 490.5h288"/><path class="st21" d="M57 509c-5.5 0-10 4.5-10 10s4.5 10 10 10 10-4.5 10-10-4.5-10-10-10zm0 18c-4.4 0-8-3.6-8-8s3.6-8 8-8 8 3.6 8 8-3.6 8-8 8zm1-14v6l4.2 2.9-1.3 1.5-5-3.5v-7H58z"/><path class="st0" d="M85 515h115a4 4 0 014 4 4 4 0 01-4 4H85a4 4 0 01-4-4 4 4 0 014-4z"/><path class="st14" d="M33 546.5h288"/><path class="st21" d="M57 621c-5.5 0-10 4.5-10 10s4.5 10 10 10 10-4.5 10-10-4.5-10-10-10zm-8 10l.2-1.8L54 634v1c0 1.1.9 2 2 2v1.9a8 8 0 01-7-7.9zm12 4a2 2 0 011.9 1.4A8 8 0 0065 631c0-3.3-2.1-6.2-5-7.4v.4a2 2 0 01-2 2h-2v2c0 .5-.5 1-1 1h-2v2h6c.5 0 1 .5 1 1v3h1z"/><path class="st0" d="M85 627h115a4 4 0 014 4 4 4 0 01-4 4H85a4 4 0 01-4-4 4 4 0 014-4zM61 577.5l-2.6 2.6c-2.8-1.5-5-3.8-6.5-6.5l2.6-2.6c.2-.2.3-.6.3-.9l-.6-3.3a1 1 0 00-1-.8H49a1 1 0 00-1 1 18.2 18.2 0 008.9 14.5 17 17 0 008 2.4c.6 0 1-.4 1-1v-4.1a1 1 0 00-.8-1l-3.3-.7c-.2 0-.5.1-.8.4zM85 571h115a4 4 0 014 4 4 4 0 01-4 4H85a4 4 0 01-4-4 4 4 0 014-4z"/><path class="st14" d="M33 602.5h288"/><g filter="url(#filter0_dd)"><circle cx="322" cy="60" r="36" fill="#d93025"/><path class="st11" d="M308.5 49.5l13.5-6 13.5 6v9c0 8.3-5.8 16.1-13.5 18a18.7 18.7 0 01-13.5-18v-9zM322 73.4c6-1.9 10.5-8.1 10.5-14.9v-7L322 46.8l-10.5 4.7v7c0 6.8 4.5 13 10.5 14.9z"/><path class="st3" d="M323.5 52.5v9h-3v-9h3zM323.5 64.5v3h-3v-3h3z"/></g></svg>