<svg id="SvgjsSvg1035" width="288" height="288" xmlns="http://www.w3.org/2000/svg" version="1.1" xmlns:xlink="http://www.w3.org/1999/xlink" xmlns:svgjs="http://svgjs.com/svgjs"><defs id="SvgjsDefs1036"></defs><g id="SvgjsG1037"><svg xmlns="http://www.w3.org/2000/svg" width="288" height="288"><rect width="100%" height="100%" fill="none"></rect><g class="currentLayer color000 svgShape" fill="#c94040"><path fill="none" d="M0.5291005373001099,0 h24 v24 H0.5291005373001099 V0 z"></path><path fill="#c94040" d="M11.99 2C6.47 2 2 6.48 2 12s4.47 10 9.99 10C17.52 22 22 17.52 22 12S17.52 2 11.99 2zM12 20c-4.42 0-8-3.58-8-8s3.58-8 8-8 8 3.58 8 8-3.58 8-8 8zm.5-13H11v6l5.25 3.15.75-1.23-4.5-2.67z" class="selected color0081c7 svgShape"></path></g></svg></g></svg>