<svg id="SvgjsSvg1001" width="288" height="288" xmlns="http://www.w3.org/2000/svg" version="1.1" xmlns:xlink="http://www.w3.org/1999/xlink" xmlns:svgjs="http://svgjs.com/svgjs"><defs id="SvgjsDefs1002"></defs><g id="SvgjsG1008" transform="matrix(1,0,0,1,0,0)"><svg xmlns="http://www.w3.org/2000/svg" xmlns:svgjs="http://svgjs.com/svgjs" xmlns:xlink="http://www.w3.org/1999/xlink" width="288" height="288"><svg xmlns="http://www.w3.org/2000/svg" width="288" height="288" enable-background="new 0 0 24 24" viewBox="0 0 24 24"><path fill="none" d="M0,0h24v24H0V0z"></path><path fill="#eba10f" d="M21.41,11.41l-8.83-8.83C12.21,2.21,11.7,2,11.17,2H4C2.9,2,2,2.9,2,4v7.17c0,0.53,0.21,1.04,0.59,1.41l8.83,8.83 c0.78,0.78,2.05,0.78,2.83,0l7.17-7.17C22.2,13.46,22.2,12.2,21.41,11.41z M12.83,20L4,11.17V4h7.17L20,12.83L12.83,20z" class="color000 svgShape color0081c7"></path><circle cx="6.5" cy="6.5" r="1.5" fill="#eba10f" class="color000 svgShape color0081c7"></circle></svg></svg></g></svg>