<svg id="SvgjsSvg1014" width="288" height="288" xmlns="http://www.w3.org/2000/svg" version="1.1" xmlns:xlink="http://www.w3.org/1999/xlink" xmlns:svgjs="http://svgjs.com/svgjs"><defs id="SvgjsDefs1015"></defs><g id="SvgjsG1016"><svg xmlns="http://www.w3.org/2000/svg" width="288" height="288" version="1.0" viewBox="0 0 225 225"><g transform="matrix(.1 0 0 -.1 0 225)" fill="#0081c7" class="color000 svgShape"><path d="M975 2239 c-229 -29 -448 -135 -621 -301 -110 -106 -172 -189 -234-313 -210 -424 -136 -927 187 -1266 350 -368 881 -462 1327 -234 242 124 434
334 536 588 53 134 73 243 74 407 0 330 -110 590 -346 816 -250 239 -575 346
-923 303z m247 -219 c613 -70 974 -712 718 -1276 -181 -399 -660 -611 -1081
-478 -223 70 -389 203 -513 408 -143 238 -160 566 -42 820 148 322 435 511
811 535 11 0 59 -4 107 -9z" fill="#0081c7" class="color000 svgShape"></path><path d="M995 1643 c-121 -44 -205 -118 -258 -231 -30 -63 -32 -74 -32 -177 1
-100 4 -117 33 -192 57 -141 169 -307 306 -451 l80 -83 49 48 c170 166 319
397 361 560 54 208 -35 408 -221 500 -69 34 -84 38 -172 40 -73 3 -108 -1
-146 -14z m226 -268 c45 -29 69 -79 69 -143 0 -78 -57 -146 -132 -158 -111
-18 -200 56 -200 167 0 134 148 210 263 134z" fill="#0081c7" class="color000 svgShape"></path></g></svg></g></svg>