<svg id="SvgjsSvg1050" width="288" height="288" xmlns="http://www.w3.org/2000/svg" version="1.1" xmlns:xlink="http://www.w3.org/1999/xlink" xmlns:svgjs="http://svgjs.com/svgjs"><defs id="SvgjsDefs1051"></defs><g id="SvgjsG1052"><svg xmlns="http://www.w3.org/2000/svg" xmlns:svgjs="http://svgjs.com/svgjs" xmlns:xlink="http://www.w3.org/1999/xlink" width="288" height="288"><svg xmlns="http://www.w3.org/2000/svg" width="288" height="288" enable-background="new 0 0 32 26.3" viewBox="0 0 32 26.3"><path fill="#c94040" d="M28.1,19.1l-3.6-3.6c-0.9-0.9-2.4-1-3.4-0.1c-0.3,0.3-0.5,0.6-0.6,0.9
	c-0.4,1.1-1.6,1.8-2.8,1.5c-3.1-1.1-5.5-3.5-6.6-6.6c-0.3-1.2,0.4-2.4,1.5-2.8c1.2-0.4,1.9-1.8,1.5-3c-0.1-0.4-0.3-0.7-0.6-0.9
	L10,1.1c-1-0.9-2.5-0.9-3.4,0L4.1,3.5C1.7,6,4.4,12.8,10.4,18.8s12.7,8.8,15.3,6.2l2.4-2.4C29,21.6,29,20.1,28.1,19.1z" class="color717070 svgShape color0081c7"></path></svg></svg></g></svg>