<svg id="SvgjsSvg1012" width="288" height="288" xmlns="http://www.w3.org/2000/svg" version="1.1" xmlns:xlink="http://www.w3.org/1999/xlink" xmlns:svgjs="http://svgjs.com/svgjs"><defs id="SvgjsDefs1013"></defs><g id="SvgjsG1014"><svg xmlns="http://www.w3.org/2000/svg" enable-background="new 0 0 32 26.3" viewBox="0 0 32 26.3" width="288" height="288"><path fill="none" d="M2.8,0h26.3v26.3H2.8V0z"></path><path fill="#0081c7" d="M24.7,3.3h-1.2V0.8H21v2.5H11V0.8H8.5v2.5H7.3c-1.4,0-2.5,1.1-2.5,2.5c0,0,0,0,0,0l0,17.3
	c0,1.4,1.1,2.5,2.5,2.5c0,0,0,0,0,0h17.4c1.4,0,2.5-1.1,2.5-2.5V5.7C27.2,4.4,26.1,3.3,24.7,3.3z M24.7,23.1H7.3V10.7h17.4V23.1z
	 M22.2,14.4H16v6.2h6.2V14.4z" class="coloreca10d svgShape"></path></svg></g></svg>