<svg id="SvgjsSvg1013" width="288" height="288" xmlns="http://www.w3.org/2000/svg" version="1.1" xmlns:xlink="http://www.w3.org/1999/xlink" xmlns:svgjs="http://svgjs.com/svgjs"><defs id="SvgjsDefs1014"></defs><g id="SvgjsG1015"><svg xmlns="http://www.w3.org/2000/svg" width="288" height="288" version="1.0" viewBox="0 0 980 980"><g transform="matrix(.1 0 0 -.1 0 980)" fill="#0081c7" class="color000 svgShape"><path d="M4560 9789 c-1035 -75 -1998 -463 -2800 -1128 -150 -123 -501 -475-622 -621 -881 -1068 -1270 -2403 -1098 -3765 119 -934 501 -1801 1124 -2545
98 -117 370 -393 496 -504 1328 -1166 3158 -1531 4825 -962 895 305 1700 879
2281 1627 735 946 1100 2126 1024 3314 -57 893 -353 1748 -856 2475 -393 569
-925 1069 -1509 1419 -628 376 -1287 596 -2025 676 -174 19 -664 27 -840 14z
m796 -384 c1219 -127 2313 -722 3079 -1678 821 -1023 1154 -2343 920 -3642
-201 -1112 -832 -2131 -1739 -2808 -1288 -960 -2962 -1173 -4443 -564 -742
306 -1412 825 -1898 1472 -631 840 -953 1896 -897 2938 28 522 125 972 309
1437 645 1633 2169 2743 3926 2860 178 12 559 4 743 -15z" fill="#0081c7" class="color000 svgShape"></path><path d="M4620 7955 c-405 -50 -764 -196 -1094 -444 -394 -297 -694 -747 -816
-1228 -87 -345 -92 -704 -15 -1083 163 -804 732 -1798 1598 -2788 129 -148
438 -480 536 -577 l61 -59 56 54 c96 95 417 439 541 582 777 888 1324 1794
1538 2543 188 659 146 1242 -130 1785 -348 684 -1016 1143 -1774 1220 -136 13
-370 11 -501 -5z m467 -1415 c307 -73 550 -315 623 -620 25 -106 27 -280 4
-381 -66 -291 -275 -521 -564 -621 -92 -32 -100 -33 -260 -33 -160 0 -168 1
-260 33 -285 98 -493 323 -560 605 -27 113 -27 282 0 397 25 104 93 244 160
327 109 136 289 252 455 292 112 27 291 28 402 1z" fill="#0081c7" class="color000 svgShape"></path></g></svg></g></svg>