<svg xmlns="http://www.w3.org/2000/svg" xmlns:xlink="http://www.w3.org/1999/xlink" version="1.1" style="" xml:space="preserve" width="32" height="26.3"><rect id="backgroundrect" width="100%" height="100%" x="0" y="0" fill="none" stroke="none"/>
<style type="text/css">
	.st0{fill:#CCCBCB;}
</style>

<g class="currentLayer" style=""><title>Layer 1</title><g id="Groupe_2569" class="" fill-opacity="1" fill="#2531d1" stroke="#5e5e5e" stroke-opacity="1">
	<path id="Tracé_2930" class="st0" d="M26.160846447944635,13.660846686363215 c-0.4,0 -0.7000000000000003,0.30000000000000016 -0.7000000000000003,0.7000000000000003 v8.7 c0,0.5 -0.4,1 -1,1 h-8.4 v-6.2 c0,-0.4 -0.30000000000000016,-0.7000000000000003 -0.7000000000000003,-0.7000000000000003 s-0.7000000000000003,0.30000000000000016 -0.7000000000000003,0.7000000000000003 v6.2 h-2.8 v-6.7 c0,-0.5 0.4,-1 1,-1 h5 c0.5,0 1,0.4 1,1 V22.56084668636322 c0,0.4 0.30000000000000016,0.7000000000000003 0.7000000000000003,0.7000000000000003 s0.7000000000000003,-0.30000000000000016 0.7000000000000003,-0.7000000000000003 v-5.3 c0,-1.3 -1,-2.3 -2.3,-2.3 h-5 c-1.3,0 -2.3,1 -2.3,2.3 v6.7 h-4.2 c-0.5,0 -1,-0.4 -1,-1 v-8.7 c0,-0.4 -0.30000000000000016,-0.7000000000000003 -0.7000000000000003,-0.7000000000000003 s-0.7000000000000003,0.30000000000000016 -0.7000000000000003,0.7000000000000003 v8.7 c0,1.3 1,2.3 2.3,2.3 H24.56084644794464 c1.3,0 2.3,-1 2.3,-2.3 v-8.7 C26.86084644794464,13.960846686363226 26.56084644794464,13.660846686363215 26.160846447944635,13.660846686363215 z" fill="#2531d1" fill-opacity="1" stroke="#5e5e5e" stroke-opacity="1"/>
	<path id="Tracé_2931" class="st0" d="M27.360846447944642,8.860846686363217 c-0.4,0 -0.7000000000000003,0.30000000000000016 -0.7000000000000003,0.7000000000000003 c0,1.3 -1,2.3 -2.3,2.3 c-1.3,0 -2.3,-1 -2.3,-2.3 l0,0 c0,-0.4 -0.30000000000000016,-0.7000000000000003 -0.7000000000000003,-0.7000000000000003 c-0.4,0 -0.7000000000000003,0.30000000000000016 -0.7000000000000003,0.7000000000000003 c0,1.3 -1,2.3 -2.3,2.3 c-1.3,0 -2.3,-1 -2.3,-2.3 l0,0 c0,-0.4 -0.30000000000000016,-0.7000000000000003 -0.7000000000000003,-0.7000000000000003 c-0.4,0 -0.7000000000000003,0.30000000000000016 -0.7000000000000003,0.7000000000000003 c0,1.3 -1,2.3 -2.3,2.3 c-1.3,0 -2.3,-1 -2.3,-2.3 c0,-0.4 -0.30000000000000016,-0.7000000000000003 -0.7000000000000003,-0.7000000000000003 c-0.4,0 -0.7000000000000003,0.30000000000000016 -0.7000000000000003,0.7000000000000003 c0,1.3 -1,2.3 -2.3,2.3 c-1.3,0 -2.3,-1 -2.3,-2.3 l0,0 v-2.4 l2.4,-5.6 h17.6 l2.1,4.8 H6.260846447944644 c-0.4,0 -0.7000000000000003,0.30000000000000016 -0.7000000000000003,0.7000000000000003 c0,0.4 0.30000000000000016,0.7000000000000003 0.7000000000000003,0.7000000000000003 c5.5,0 9.6,0 12.5,0 h4.3 c2.3,0 3.3,0 3.9,0 c0.6000000000000003,0 0.7000000000000003,0 0.8,-0.1 c0.1,-0.1 0.2,-0.30000000000000016 0.2,-0.4 l0,0 c0,-0.1 0,-0.2 -0.1,-0.6000000000000003 c-0.1,-0.30000000000000016 -0.4,-1 -1,-2.3 c-0.4,-0.9 -0.9,-2 -1.6,-3.6 c-0.1,-0.2 -0.30000000000000016,-0.4 -0.6000000000000003,-0.4 H6.260846447944644 c-0.30000000000000016,0 -0.5,0.2 -0.6000000000000003,0.4 l-2.7,6.2 v0 c-0.1,0.1 -0.1,0.1 -0.1,1.3 c0,0.4 0,0.8 0,1.5 c0,2 1.6,3.6 3.6,3.6 c1.2,0 2.3,-0.6000000000000003 3,-1.6 c1.2,1.6 3.4,2 5.1,0.9 c0.30000000000000016,-0.2 0.6000000000000003,-0.5 0.9,-0.9 c1.2,1.6 3.4,2 5.1,0.9 c0.30000000000000016,-0.2 0.6000000000000003,-0.5 0.9,-0.9 c1.1,1.6 3.4,2.1 5.1,0.9 c1,-0.7000000000000003 1.6,-1.8 1.6,-3 C28.06084644794464,9.160846686363222 27.760846447944644,8.860846686363217 27.360846447944642,8.860846686363217 C27.360846447944642,8.860846686363217 27.360846447944642,8.860846686363217 27.360846447944642,8.860846686363217 z" fill="#2531d1" fill-opacity="1" stroke="#5e5e5e" stroke-opacity="1"/>
</g></g></svg>