<?xml version="1.0" encoding="utf-8"?>
<!-- Generator: Adobe Illustrator 25.2.1, SVG Export Plug-In . SVG Version: 6.00 Build 0)  -->
<svg version="1.1" id="Calque_1" xmlns="http://www.w3.org/2000/svg" xmlns:xlink="http://www.w3.org/1999/xlink" x="0px" y="0px"
	 viewBox="0 0 32 26.3" style="enable-background:new 0 0 32 26.3;" xml:space="preserve">
<style type="text/css">
	.st0{fill:none;}
	.st1{fill:#0C81C4;}
</style>
<path id="Tracé_5339" class="st0" d="M2.9,0.3h26.1v26.1H2.9V0.3z"/>
<path id="Tracé_5340" class="st1" d="M22.5,22.1H7.3V6.9h9.8V4.7H7.3c-1.2,0-2.2,1-2.2,2.2v15.3c0,1.2,1,2.2,2.2,2.2h15.3
	c1.2,0,2.2-1,2.2-2.2v-9.8h-2.2V22.1z M14,18.7l-2.1-2.6l-3,3.8h12L17,14.8L14,18.7z M24.7,4.7V1.4h-2.2v3.3h-3.3c0,0,0,2.2,0,2.2
	h3.3v3.3c0,0,2.2,0,2.2,0V6.9H28V4.7H24.7z"/>
</svg>
