<svg xmlns="http://www.w3.org/2000/svg" width="123.719" height="123.72" viewBox="0 0 123.719 123.72">
  <g id="Groupe_2" data-name="Groupe 2" transform="translate(-1091.17 -246.202)">
    <path id="Tracé_1" data-name="Tracé 1" d="M1097.379,288.042a4.745,4.745,0,0,0,2.518-.481,1.471,1.471,0,0,0,.707-1.272,1.819,1.819,0,0,0-.707-1.443,6.508,6.508,0,0,0-1.953-1.047q-1.244-.451-2.857-.905t-3.423-1.076c-.17-.057-.328-.118-.494-.177v5.224c.5.172,1,.341,1.54.5A16.34,16.34,0,0,0,1097.379,288.042Z" transform="translate(0 -4.195)" fill="#f8d61b"/>
    <path id="Tracé_2" data-name="Tracé 2" d="M1099.035,323.021a5.065,5.065,0,0,0,.876-3.168,4.55,4.55,0,0,0-1.018-3.2,2.856,2.856,0,0,0-2.037-1.1h-5.686v8.6h5.969A2.44,2.44,0,0,0,1099.035,323.021Z" transform="translate(0 -8.21)" fill="#f8d61b"/>
    <g id="Groupe_1" data-name="Groupe 1" transform="translate(1091.17 246.202)">
      <path id="Tracé_3" data-name="Tracé 3" d="M1217.187,358.536a7.52,7.52,0,0,0-2.672-1.886,9.153,9.153,0,0,0-3.622-.678h-5.643v18.176h5.643a9.135,9.135,0,0,0,3.676-.69,7.43,7.43,0,0,0,2.658-1.913,8.126,8.126,0,0,0,1.614-2.89,11.624,11.624,0,0,0,.543-3.621,11.35,11.35,0,0,0-.556-3.637A8.085,8.085,0,0,0,1217.187,358.536Z" transform="translate(-1104.675 -259.196)" fill="#f8d61b"/>
      <path id="Tracé_4" data-name="Tracé 4" d="M1187.742,358.626a8.706,8.706,0,0,0-2.673-2.049,7.7,7.7,0,0,0-6.755.041,8.7,8.7,0,0,0-2.672,2.1,9.717,9.717,0,0,0-1.7,9.781,9.857,9.857,0,0,0,1.75,2.959,8.309,8.309,0,0,0,2.658,2.047,7.589,7.589,0,0,0,3.391.759,7.408,7.408,0,0,0,3.432-.8,8.523,8.523,0,0,0,2.659-2.1,9.791,9.791,0,0,0,1.709-2.956,9.719,9.719,0,0,0-1.8-9.781Z" transform="translate(-1100.893 -259.178)" fill="#f8d61b"/>
      <path id="Tracé_5" data-name="Tracé 5" d="M1132.675,357.6a5.279,5.279,0,0,0-1.56-1.181,4.212,4.212,0,0,0-1.9-.447h-7.3v10.609h7.488a4.168,4.168,0,0,0,1.967-.462,4.518,4.518,0,0,0,1.479-1.22,5.777,5.777,0,0,0,.922-1.71,5.9,5.9,0,0,0,.325-1.925,5.278,5.278,0,0,0-.379-1.981A5.54,5.54,0,0,0,1132.675,357.6Z" transform="translate(-1094.81 -259.196)" fill="#f8d61b"/>
      <path id="Tracé_6" data-name="Tracé 6" d="M1159.9,363.215a5.962,5.962,0,0,0,.326-1.952,5.279,5.279,0,0,0-.38-1.981,5.541,5.541,0,0,0-1.045-1.682,5.279,5.279,0,0,0-1.56-1.181,4.209,4.209,0,0,0-1.9-.447h-7.3v10.609h7.489a4.09,4.09,0,0,0,1.954-.462,4.822,4.822,0,0,0,1.479-1.207A5.434,5.434,0,0,0,1159.9,363.215Z" transform="translate(-1097.903 -259.196)" fill="#f8d61b"/>
      <path id="Tracé_7" data-name="Tracé 7" d="M1203.892,246.2H1091.17v7.347a18.3,18.3,0,0,1,5.3-.769,21.6,21.6,0,0,1,4.3.424,34.621,34.621,0,0,1,4.046,1.075q1.952.652,3.65,1.415t3.056,1.443l-4.753,9.111a31.06,31.06,0,0,0-3.509-1.811,31.912,31.912,0,0,0-3.423-1.273,12.37,12.37,0,0,0-3.706-.594,5.154,5.154,0,0,0-2.349.452,1.583,1.583,0,0,0-.877,1.528,1.761,1.761,0,0,0,.51,1.3,4.8,4.8,0,0,0,1.471.934,18.187,18.187,0,0,0,2.348.82q1.386.4,3.141.963a41.056,41.056,0,0,1,5.008,1.867,15.569,15.569,0,0,1,3.819,2.4,9.273,9.273,0,0,1,2.434,3.368,12.2,12.2,0,0,1,.849,4.809,12.676,12.676,0,0,1-1.33,6.084,10.909,10.909,0,0,1-3.509,3.933,14.762,14.762,0,0,1-4.923,2.121,23.847,23.847,0,0,1-5.517.651,31.087,31.087,0,0,1-4.527-.339c-.506-.074-1.009-.174-1.512-.266v4.524h6.422a12.224,12.224,0,0,1,5.433,1.215,14.144,14.144,0,0,1,4.272,3.169,14.808,14.808,0,0,1,2.8,4.472,13.417,13.417,0,0,1,1.018,5.065,14.293,14.293,0,0,1-1.528,6.536,13.308,13.308,0,0,1-4.244,4.95l8.489,14.771h-12.45l-7.073-12.337h-3.139v33.361a11,11,0,0,0,11,11h112.721V257.2A11,11,0,0,0,1203.892,246.2Zm-35.949,6.918,7.187,17.372,7.356-17.372h12L1180.619,280v13.3h-10.978V279.886L1156,253.12Zm-50.589,0h.3v-.029h11.035v14.855h13.163V253.12h11.034V293.3h-11.034V277.567h-13.163v13.605a7.327,7.327,0,0,0-11.339.374Zm.3,47.734a7.327,7.327,0,0,0,11.035,0V337.9h-11.035Zm12.963,49.612a5.982,5.982,0,0,1-1.071,1.872,5.3,5.3,0,0,1-1.655,1.3,4.64,4.64,0,0,1-2.13.489h-7.488v7.57h-.542V342.434h7.84a4.776,4.776,0,0,1,2.171.5,5.524,5.524,0,0,1,1.722,1.329,6.316,6.316,0,0,1,1.127,1.872,5.824,5.824,0,0,1,.406,2.13A6.438,6.438,0,0,1,1130.622,350.466Zm23.386,11.232h-.651l-4.884-7.57h-7.162v7.57h-.542V342.434h7.841a4.776,4.776,0,0,1,2.171.5,5.54,5.54,0,0,1,1.723,1.329,6.333,6.333,0,0,1,1.126,1.872,5.824,5.824,0,0,1,.406,2.13,6.583,6.583,0,0,1-.353,2.143,5.9,5.9,0,0,1-1,1.83,5.28,5.28,0,0,1-1.561,1.3,4.786,4.786,0,0,1-1.994.584Zm-7.695-43.548V337.9h-11.034V297.724h8.6l16.127,20.426V297.724h11.035V337.9h-8.772Zm33.971,37.633a10.138,10.138,0,0,1-1.9,3.106,9.281,9.281,0,0,1-2.835,2.144,8.249,8.249,0,0,1-7.176-.041,9.532,9.532,0,0,1-2.835-2.2,9.838,9.838,0,0,1-1.845-3.12,10.347,10.347,0,0,1-.651-3.609,10.007,10.007,0,0,1,.692-3.688,10.344,10.344,0,0,1,1.9-3.122,9.135,9.135,0,0,1,2.849-2.156,7.97,7.97,0,0,1,3.54-.8,7.8,7.8,0,0,1,3.636.856,9.267,9.267,0,0,1,2.835,2.237,10.359,10.359,0,0,1,1.831,3.134,10.137,10.137,0,0,1-.041,7.257Zm25.5.231a8.762,8.762,0,0,1-1.8,3.037,7.921,7.921,0,0,1-2.849,1.955,9.753,9.753,0,0,1-3.743.692H1191.2V342.434h6.185a9.641,9.641,0,0,1,3.974.76,8.023,8.023,0,0,1,2.822,2.061,8.622,8.622,0,0,1,1.682,3.052,12.277,12.277,0,0,1,.555,3.732A11.72,11.72,0,0,1,1205.785,356.014Zm.793-18.113h-28.633V297.724h28.124v9.618H1188.98V313h14.6v8.94h-14.6v6.339h17.6Z" transform="translate(-1091.17 -246.202)" fill="#f8d61b"/>
    </g>
  </g>
</svg>
