<svg xmlns="http://www.w3.org/2000/svg" xmlns:xlink="http://www.w3.org/1999/xlink" width="640.806" height="115.547" viewBox="0 0 640.806 115.547">
  <defs>
    <linearGradient id="linear-gradient" y1="8.806" x2="1" y2="8.806" gradientUnits="objectBoundingBox">
      <stop offset="0" stop-color="#fff" stop-opacity="0"/>
      <stop offset="0.09" stop-color="#fff" stop-opacity="0.09"/>
      <stop offset="1" stop-color="#fff"/>
    </linearGradient>
  </defs>
  <g id="background" transform="translate(-12.071 -1.196)">
    <path id="Tracé_4620" data-name="Tracé 4620" d="M112.88,49.989h17.672v57.094H112.88V49.989ZM150.943,26.88h24.469v80.2H150.943V26.88Z" transform="translate(40.566 9.66)" fill="#f2f3f5"/>
    <path id="Tracé_4621" data-name="Tracé 4621" d="M133.88,39.88h21.75v62.531H133.88V39.88Z" transform="translate(48.113 14.332)" fill="#f2f3f5"/>
    <path id="Tracé_4622" data-name="Tracé 4622" d="M140.849,52.6h17.672V98.818H140.849V52.6ZM72.88,49.88h43.5V98.818H72.88V49.88ZM221.052,64.833h29.906V98.818H221.052Z" transform="translate(26.191 17.926)" fill="#f2f3f5"/>
    <path id="Tracé_4623" data-name="Tracé 4623" d="M56.88,55.88H81.349V96.661H56.88V55.88Z" transform="translate(20.441 20.082)" fill="#f2f3f5"/>
    <path id="Tracé_4624" data-name="Tracé 4624" d="M59.583,39.88H71.817v62.531H59.583V39.88ZM22.88,60.271H35.114v42.141H22.88V60.271Z" transform="translate(8.223 14.332)" fill="#f2f3f5"/>
    <path id="Tracé_4625" data-name="Tracé 4625" d="M8.88,73.1H67.333v33.984H8.88V73.1ZM235.9,36.4h14.953v70.688H235.9V36.4Zm163.125,0h14.953v70.688H399.021V36.4ZM339.208,70.38h24.469v36.7H339.208V70.38Zm96.516-43.5h32.625v80.2H435.724V26.88Zm43.5,23.109h20.391v57.094H479.224V49.989Zm28.547,10.875h31.266v46.219H507.771V60.864Z" transform="translate(3.191 9.66)" fill="#f2f3f5"/>
    <path id="Tracé_4626" data-name="Tracé 4626" d="M383.88,43.677h12.234v59.813H383.88V43.677Zm19.031-6.8h12.234v66.609H402.911V36.88Zm32.625,12.234h10.875v54.375H435.536V49.114Zm10.875,9.516h31.266v44.859H446.411V58.63Z" transform="translate(137.957 13.254)" fill="#f2f3f5"/>
    <path id="Tracé_4627" data-name="Tracé 4627" d="M535.505,38.88h12.234v63.891H535.505V38.88Zm44.859,23.109h16.313v40.781H580.364V61.989Zm-85.641,4.078h25.828v36.7H494.724v-36.7Zm-137.3,1.359h32.625v35.344H357.427V67.427ZM154.88,60.63h32.625v42.141H154.88V60.63Zm63.714-3.575h39.585v45.7H218.594Z" transform="translate(55.66 13.973)" fill="#f2f3f5"/>
    <path id="Tracé_4628" data-name="Tracé 4628" d="M223.88,62.88h76.125V94.146H223.88V62.88Z" transform="translate(80.457 22.597)" fill="#f2f3f5"/>
    <path id="Tracé_4629" data-name="Tracé 4629" d="M274.88,51.88h22.267V98.1H274.88V51.88Z" transform="translate(98.785 18.644)" fill="#f2f3f5"/>
    <path id="Tracé_4630" data-name="Tracé 4630" d="M368.677,103.489H352.364V79.021L368.677,69.5M429.849,58.63h20.391v44.859H429.849ZM224.583,103.489V47.238L251.934,36.88v66.609m209.181-36.7,17.672,8.156v28.547H461.114m-342.562-36.7L100.88,74.943v28.547h17.672M603.849,76.3,575.3,62.708v40.781h28.547" transform="translate(36.254 13.254)" fill="#f2f3f5"/>
    <g id="Groupe_6363" data-name="Groupe 6363" transform="translate(-34.248 1.196)">
      <path id="Tracé_4631" data-name="Tracé 4631" d="M302,1H587.469V116.547H302Z" transform="translate(99.656 -1)" fill="url(#linear-gradient)"/>
      <path id="Tracé_4633" data-name="Tracé 4633" d="M0,0H285.469V115.547H0Z" transform="translate(331.788 115.547) rotate(180)" fill="url(#linear-gradient)"/>
    </g>
  </g>
</svg>
