<?xml version="1.0" encoding="utf-8"?>
<!-- Generator: Adobe Illustrator 25.1.0, SVG Export Plug-In . SVG Version: 6.00 Build 0)  -->
<svg version="1.1" id="Groupe_6469" xmlns="http://www.w3.org/2000/svg" xmlns:xlink="http://www.w3.org/1999/xlink" x="0px"
	 y="0px" viewBox="0 0 45 45" style="enable-background:new 0 0 45 45;" xml:space="preserve">
<style type="text/css">
	.st0{fill:#CBCBCB;}
	.st1{fill:#707070;stroke:#707070;stroke-width:0.5;}
</style>
<circle id="Ellipse_99" class="st0" cx="22.5" cy="22.5" r="22.5"/>
<path id="Tracé_2922" class="st1" d="M30.4,23.2V30c0,0.9-0.7,1.6-1.6,1.6h-14c-0.9,0-1.6-0.7-1.6-1.6v-6.7c0-0.2,0.1-0.3,0.3-0.3
	c0.2,0,0.3,0.1,0.3,0.3c0,0,0,0,0,0V30c0,0.5,0.4,1,1,1h3.5v-5.4c0-0.9,0.7-1.6,1.6-1.6h3.9c0.9,0,1.6,0.7,1.6,1.6v4.1
	c0,0.2-0.1,0.3-0.3,0.3c-0.2,0-0.3-0.1-0.3-0.3v-4.1c0-0.5-0.4-1-1-1h-3.9c-0.5,0-1,0.4-1,1v5.4h2.6v-5c0-0.2,0.1-0.3,0.3-0.3
	c0.2,0,0.3,0.1,0.3,0.3v5h6.7c0.5,0,1-0.4,1-1v-6.7c0-0.2,0.1-0.3,0.3-0.3S30.4,23.1,30.4,23.2L30.4,23.2z M14.3,17.5
	c0,0.2,0.1,0.3,0.3,0.3l0,0c17.3,0,16.5,0,16.6-0.1c0.1-0.1,0.1-0.1,0.1-0.2c0-0.1,0.1,0.2-2.1-5c-0.1-0.1-0.2-0.2-0.3-0.2H14.7
	c-0.1,0-0.2,0.1-0.3,0.2l-2.1,4.8c-0.1,0.7-0.1,1.4,0,2.1c0,1.5,1.2,2.6,2.6,2.6c1,0,1.9-0.5,2.3-1.4c0.7,1.3,2.3,1.7,3.6,1.1
	c0.4-0.2,0.8-0.6,1.1-1.1c0.7,1.3,2.3,1.7,3.6,1.1c0.4-0.2,0.8-0.6,1.1-1.1c0.7,1.3,2.3,1.7,3.6,1.1c0.8-0.5,1.4-1.3,1.4-2.3
	c0-0.2-0.1-0.3-0.3-0.3s-0.3,0.1-0.3,0.3c0,1.1-0.9,2-2,2c-1.1,0-2-0.9-2-2l0,0c0-0.2-0.1-0.3-0.3-0.3c-0.2,0-0.3,0.1-0.3,0.3
	c0,1.1-0.9,2-2,2c-1.1,0-2-0.9-2-2l0,0c0-0.2-0.1-0.3-0.3-0.3s-0.3,0.1-0.3,0.3c0,0,0,0,0,0c0,1.1-0.9,2-2,2c-1.1,0-2-0.9-2-2
	c0-0.2-0.1-0.3-0.3-0.3c-0.2,0-0.3,0.1-0.3,0.3c0,0,0,0,0,0c0,1.1-0.9,2-2,2c-1.1,0-2-0.9-2-2v-1.9l2-4.5h13.9l1.8,4.1H14.7
	C14.5,17.2,14.3,17.4,14.3,17.5L14.3,17.5L14.3,17.5z"/>
</svg>
